<?xml version="1.0" encoding="utf-8" standalone="no"?>
<!DOCTYPE svg PUBLIC "-//W3C//DTD SVG 1.1//EN"
  "http://www.w3.org/Graphics/SVG/1.1/DTD/svg11.dtd">
<!-- Created with matplotlib (https://matplotlib.org/) -->
<svg height="345.6pt" version="1.1" viewBox="0 0 460.8 345.6" width="460.8pt" xmlns="http://www.w3.org/2000/svg" xmlns:xlink="http://www.w3.org/1999/xlink">
 <defs>
  <style type="text/css">
*{stroke-linecap:butt;stroke-linejoin:round;}
  </style>
 </defs>
 <g id="figure_1">
  <g id="patch_1">
   <path d="M 0 345.6 
L 460.8 345.6 
L 460.8 0 
L 0 0 
z
" style="fill:#ffffff;"/>
  </g>
  <g id="axes_1">
   <g id="patch_2">
    <path d="M 37.775 87.64 
L 348.141667 87.64 
L 348.141667 26.16 
L 37.775 26.16 
z
" style="fill:#ffffff;"/>
   </g>
   <g id="line2d_1">
    <path clip-path="url(#p8c8ffbd855)" d="M 37.775 54.265143 
L 348.141667 54.265143 
" style="fill:none;stroke:#008000;stroke-dasharray:1.6,2.4;stroke-dashoffset:0;stroke-width:0.8;"/>
   </g>
   <g id="matplotlib.axis_1">
    <g id="xtick_1">
     <g id="line2d_2">
      <defs>
       <path d="M 0 0 
L 0 3.5 
" id="m22cff8d8c3" style="stroke:#000000;stroke-width:0.8;"/>
      </defs>
      <g>
       <use style="stroke:#000000;stroke-width:0.8;" x="37.775" xlink:href="#m22cff8d8c3" y="87.64"/>
      </g>
     </g>
     <g id="text_1">
      <!-- 0 -->
      <defs>
       <path d="M 31.78125 66.40625 
Q 24.171875 66.40625 20.328125 58.90625 
Q 16.5 51.421875 16.5 36.375 
Q 16.5 21.390625 20.328125 13.890625 
Q 24.171875 6.390625 31.78125 6.390625 
Q 39.453125 6.390625 43.28125 13.890625 
Q 47.125 21.390625 47.125 36.375 
Q 47.125 51.421875 43.28125 58.90625 
Q 39.453125 66.40625 31.78125 66.40625 
z
M 31.78125 74.21875 
Q 44.046875 74.21875 50.515625 64.515625 
Q 56.984375 54.828125 56.984375 36.375 
Q 56.984375 17.96875 50.515625 8.265625 
Q 44.046875 -1.421875 31.78125 -1.421875 
Q 19.53125 -1.421875 13.0625 8.265625 
Q 6.59375 17.96875 6.59375 36.375 
Q 6.59375 54.828125 13.0625 64.515625 
Q 19.53125 74.21875 31.78125 74.21875 
z
" id="DejaVuSans-48"/>
      </defs>
      <g transform="translate(35.86625 99.199062)scale(0.06 -0.06)">
       <use xlink:href="#DejaVuSans-48"/>
      </g>
     </g>
    </g>
    <g id="xtick_2">
     <g id="line2d_3">
      <g>
       <use style="stroke:#000000;stroke-width:0.8;" x="52.589638" xlink:href="#m22cff8d8c3" y="87.64"/>
      </g>
     </g>
     <g id="text_2">
      <!-- 1 -->
      <defs>
       <path d="M 12.40625 8.296875 
L 28.515625 8.296875 
L 28.515625 63.921875 
L 10.984375 60.40625 
L 10.984375 69.390625 
L 28.421875 72.90625 
L 38.28125 72.90625 
L 38.28125 8.296875 
L 54.390625 8.296875 
L 54.390625 0 
L 12.40625 0 
z
" id="DejaVuSans-49"/>
      </defs>
      <g transform="translate(50.680888 99.199062)scale(0.06 -0.06)">
       <use xlink:href="#DejaVuSans-49"/>
      </g>
     </g>
    </g>
    <g id="xtick_3">
     <g id="line2d_4">
      <g>
       <use style="stroke:#000000;stroke-width:0.8;" x="67.404276" xlink:href="#m22cff8d8c3" y="87.64"/>
      </g>
     </g>
     <g id="text_3">
      <!-- 2 -->
      <defs>
       <path d="M 19.1875 8.296875 
L 53.609375 8.296875 
L 53.609375 0 
L 7.328125 0 
L 7.328125 8.296875 
Q 12.9375 14.109375 22.625 23.890625 
Q 32.328125 33.6875 34.8125 36.53125 
Q 39.546875 41.84375 41.421875 45.53125 
Q 43.3125 49.21875 43.3125 52.78125 
Q 43.3125 58.59375 39.234375 62.25 
Q 35.15625 65.921875 28.609375 65.921875 
Q 23.96875 65.921875 18.8125 64.3125 
Q 13.671875 62.703125 7.8125 59.421875 
L 7.8125 69.390625 
Q 13.765625 71.78125 18.9375 73 
Q 24.125 74.21875 28.421875 74.21875 
Q 39.75 74.21875 46.484375 68.546875 
Q 53.21875 62.890625 53.21875 53.421875 
Q 53.21875 48.921875 51.53125 44.890625 
Q 49.859375 40.875 45.40625 35.40625 
Q 44.1875 33.984375 37.640625 27.21875 
Q 31.109375 20.453125 19.1875 8.296875 
z
" id="DejaVuSans-50"/>
      </defs>
      <g transform="translate(65.495526 99.199062)scale(0.06 -0.06)">
       <use xlink:href="#DejaVuSans-50"/>
      </g>
     </g>
    </g>
    <g id="xtick_4">
     <g id="line2d_5">
      <g>
       <use style="stroke:#000000;stroke-width:0.8;" x="82.218914" xlink:href="#m22cff8d8c3" y="87.64"/>
      </g>
     </g>
     <g id="text_4">
      <!-- 3 -->
      <defs>
       <path d="M 40.578125 39.3125 
Q 47.65625 37.796875 51.625 33 
Q 55.609375 28.21875 55.609375 21.1875 
Q 55.609375 10.40625 48.1875 4.484375 
Q 40.765625 -1.421875 27.09375 -1.421875 
Q 22.515625 -1.421875 17.65625 -0.515625 
Q 12.796875 0.390625 7.625 2.203125 
L 7.625 11.71875 
Q 11.71875 9.328125 16.59375 8.109375 
Q 21.484375 6.890625 26.8125 6.890625 
Q 36.078125 6.890625 40.9375 10.546875 
Q 45.796875 14.203125 45.796875 21.1875 
Q 45.796875 27.640625 41.28125 31.265625 
Q 36.765625 34.90625 28.71875 34.90625 
L 20.21875 34.90625 
L 20.21875 43.015625 
L 29.109375 43.015625 
Q 36.375 43.015625 40.234375 45.921875 
Q 44.09375 48.828125 44.09375 54.296875 
Q 44.09375 59.90625 40.109375 62.90625 
Q 36.140625 65.921875 28.71875 65.921875 
Q 24.65625 65.921875 20.015625 65.03125 
Q 15.375 64.15625 9.8125 62.3125 
L 9.8125 71.09375 
Q 15.4375 72.65625 20.34375 73.4375 
Q 25.25 74.21875 29.59375 74.21875 
Q 40.828125 74.21875 47.359375 69.109375 
Q 53.90625 64.015625 53.90625 55.328125 
Q 53.90625 49.265625 50.4375 45.09375 
Q 46.96875 40.921875 40.578125 39.3125 
z
" id="DejaVuSans-51"/>
      </defs>
      <g transform="translate(80.310164 99.199062)scale(0.06 -0.06)">
       <use xlink:href="#DejaVuSans-51"/>
      </g>
     </g>
    </g>
    <g id="xtick_5">
     <g id="line2d_6">
      <g>
       <use style="stroke:#000000;stroke-width:0.8;" x="97.033552" xlink:href="#m22cff8d8c3" y="87.64"/>
      </g>
     </g>
     <g id="text_5">
      <!-- 4 -->
      <defs>
       <path d="M 37.796875 64.3125 
L 12.890625 25.390625 
L 37.796875 25.390625 
z
M 35.203125 72.90625 
L 47.609375 72.90625 
L 47.609375 25.390625 
L 58.015625 25.390625 
L 58.015625 17.1875 
L 47.609375 17.1875 
L 47.609375 0 
L 37.796875 0 
L 37.796875 17.1875 
L 4.890625 17.1875 
L 4.890625 26.703125 
z
" id="DejaVuSans-52"/>
      </defs>
      <g transform="translate(95.124802 99.199062)scale(0.06 -0.06)">
       <use xlink:href="#DejaVuSans-52"/>
      </g>
     </g>
    </g>
    <g id="xtick_6">
     <g id="line2d_7">
      <g>
       <use style="stroke:#000000;stroke-width:0.8;" x="111.84819" xlink:href="#m22cff8d8c3" y="87.64"/>
      </g>
     </g>
     <g id="text_6">
      <!-- 5 -->
      <defs>
       <path d="M 10.796875 72.90625 
L 49.515625 72.90625 
L 49.515625 64.59375 
L 19.828125 64.59375 
L 19.828125 46.734375 
Q 21.96875 47.46875 24.109375 47.828125 
Q 26.265625 48.1875 28.421875 48.1875 
Q 40.625 48.1875 47.75 41.5 
Q 54.890625 34.8125 54.890625 23.390625 
Q 54.890625 11.625 47.5625 5.09375 
Q 40.234375 -1.421875 26.90625 -1.421875 
Q 22.3125 -1.421875 17.546875 -0.640625 
Q 12.796875 0.140625 7.71875 1.703125 
L 7.71875 11.625 
Q 12.109375 9.234375 16.796875 8.0625 
Q 21.484375 6.890625 26.703125 6.890625 
Q 35.15625 6.890625 40.078125 11.328125 
Q 45.015625 15.765625 45.015625 23.390625 
Q 45.015625 31 40.078125 35.4375 
Q 35.15625 39.890625 26.703125 39.890625 
Q 22.75 39.890625 18.8125 39.015625 
Q 14.890625 38.140625 10.796875 36.28125 
z
" id="DejaVuSans-53"/>
      </defs>
      <g transform="translate(109.93944 99.199062)scale(0.06 -0.06)">
       <use xlink:href="#DejaVuSans-53"/>
      </g>
     </g>
    </g>
    <g id="xtick_7">
     <g id="line2d_8">
      <g>
       <use style="stroke:#000000;stroke-width:0.8;" x="126.662828" xlink:href="#m22cff8d8c3" y="87.64"/>
      </g>
     </g>
     <g id="text_7">
      <!-- 6 -->
      <defs>
       <path d="M 33.015625 40.375 
Q 26.375 40.375 22.484375 35.828125 
Q 18.609375 31.296875 18.609375 23.390625 
Q 18.609375 15.53125 22.484375 10.953125 
Q 26.375 6.390625 33.015625 6.390625 
Q 39.65625 6.390625 43.53125 10.953125 
Q 47.40625 15.53125 47.40625 23.390625 
Q 47.40625 31.296875 43.53125 35.828125 
Q 39.65625 40.375 33.015625 40.375 
z
M 52.59375 71.296875 
L 52.59375 62.3125 
Q 48.875 64.0625 45.09375 64.984375 
Q 41.3125 65.921875 37.59375 65.921875 
Q 27.828125 65.921875 22.671875 59.328125 
Q 17.53125 52.734375 16.796875 39.40625 
Q 19.671875 43.65625 24.015625 45.921875 
Q 28.375 48.1875 33.59375 48.1875 
Q 44.578125 48.1875 50.953125 41.515625 
Q 57.328125 34.859375 57.328125 23.390625 
Q 57.328125 12.15625 50.6875 5.359375 
Q 44.046875 -1.421875 33.015625 -1.421875 
Q 20.359375 -1.421875 13.671875 8.265625 
Q 6.984375 17.96875 6.984375 36.375 
Q 6.984375 53.65625 15.1875 63.9375 
Q 23.390625 74.21875 37.203125 74.21875 
Q 40.921875 74.21875 44.703125 73.484375 
Q 48.484375 72.75 52.59375 71.296875 
z
" id="DejaVuSans-54"/>
      </defs>
      <g transform="translate(124.754078 99.199062)scale(0.06 -0.06)">
       <use xlink:href="#DejaVuSans-54"/>
      </g>
     </g>
    </g>
    <g id="xtick_8">
     <g id="line2d_9">
      <g>
       <use style="stroke:#000000;stroke-width:0.8;" x="141.477466" xlink:href="#m22cff8d8c3" y="87.64"/>
      </g>
     </g>
     <g id="text_8">
      <!-- 7 -->
      <defs>
       <path d="M 8.203125 72.90625 
L 55.078125 72.90625 
L 55.078125 68.703125 
L 28.609375 0 
L 18.3125 0 
L 43.21875 64.59375 
L 8.203125 64.59375 
z
" id="DejaVuSans-55"/>
      </defs>
      <g transform="translate(139.568716 99.199062)scale(0.06 -0.06)">
       <use xlink:href="#DejaVuSans-55"/>
      </g>
     </g>
    </g>
    <g id="xtick_9">
     <g id="line2d_10">
      <g>
       <use style="stroke:#000000;stroke-width:0.8;" x="156.292104" xlink:href="#m22cff8d8c3" y="87.64"/>
      </g>
     </g>
     <g id="text_9">
      <!-- 8 -->
      <defs>
       <path d="M 31.78125 34.625 
Q 24.75 34.625 20.71875 30.859375 
Q 16.703125 27.09375 16.703125 20.515625 
Q 16.703125 13.921875 20.71875 10.15625 
Q 24.75 6.390625 31.78125 6.390625 
Q 38.8125 6.390625 42.859375 10.171875 
Q 46.921875 13.96875 46.921875 20.515625 
Q 46.921875 27.09375 42.890625 30.859375 
Q 38.875 34.625 31.78125 34.625 
z
M 21.921875 38.8125 
Q 15.578125 40.375 12.03125 44.71875 
Q 8.5 49.078125 8.5 55.328125 
Q 8.5 64.0625 14.71875 69.140625 
Q 20.953125 74.21875 31.78125 74.21875 
Q 42.671875 74.21875 48.875 69.140625 
Q 55.078125 64.0625 55.078125 55.328125 
Q 55.078125 49.078125 51.53125 44.71875 
Q 48 40.375 41.703125 38.8125 
Q 48.828125 37.15625 52.796875 32.3125 
Q 56.78125 27.484375 56.78125 20.515625 
Q 56.78125 9.90625 50.3125 4.234375 
Q 43.84375 -1.421875 31.78125 -1.421875 
Q 19.734375 -1.421875 13.25 4.234375 
Q 6.78125 9.90625 6.78125 20.515625 
Q 6.78125 27.484375 10.78125 32.3125 
Q 14.796875 37.15625 21.921875 38.8125 
z
M 18.3125 54.390625 
Q 18.3125 48.734375 21.84375 45.5625 
Q 25.390625 42.390625 31.78125 42.390625 
Q 38.140625 42.390625 41.71875 45.5625 
Q 45.3125 48.734375 45.3125 54.390625 
Q 45.3125 60.0625 41.71875 63.234375 
Q 38.140625 66.40625 31.78125 66.40625 
Q 25.390625 66.40625 21.84375 63.234375 
Q 18.3125 60.0625 18.3125 54.390625 
z
" id="DejaVuSans-56"/>
      </defs>
      <g transform="translate(154.383354 99.199062)scale(0.06 -0.06)">
       <use xlink:href="#DejaVuSans-56"/>
      </g>
     </g>
    </g>
    <g id="xtick_10">
     <g id="line2d_11">
      <g>
       <use style="stroke:#000000;stroke-width:0.8;" x="171.106742" xlink:href="#m22cff8d8c3" y="87.64"/>
      </g>
     </g>
     <g id="text_10">
      <!-- 9 -->
      <defs>
       <path d="M 10.984375 1.515625 
L 10.984375 10.5 
Q 14.703125 8.734375 18.5 7.8125 
Q 22.3125 6.890625 25.984375 6.890625 
Q 35.75 6.890625 40.890625 13.453125 
Q 46.046875 20.015625 46.78125 33.40625 
Q 43.953125 29.203125 39.59375 26.953125 
Q 35.25 24.703125 29.984375 24.703125 
Q 19.046875 24.703125 12.671875 31.3125 
Q 6.296875 37.9375 6.296875 49.421875 
Q 6.296875 60.640625 12.9375 67.421875 
Q 19.578125 74.21875 30.609375 74.21875 
Q 43.265625 74.21875 49.921875 64.515625 
Q 56.59375 54.828125 56.59375 36.375 
Q 56.59375 19.140625 48.40625 8.859375 
Q 40.234375 -1.421875 26.421875 -1.421875 
Q 22.703125 -1.421875 18.890625 -0.6875 
Q 15.09375 0.046875 10.984375 1.515625 
z
M 30.609375 32.421875 
Q 37.25 32.421875 41.125 36.953125 
Q 45.015625 41.5 45.015625 49.421875 
Q 45.015625 57.28125 41.125 61.84375 
Q 37.25 66.40625 30.609375 66.40625 
Q 23.96875 66.40625 20.09375 61.84375 
Q 16.21875 57.28125 16.21875 49.421875 
Q 16.21875 41.5 20.09375 36.953125 
Q 23.96875 32.421875 30.609375 32.421875 
z
" id="DejaVuSans-57"/>
      </defs>
      <g transform="translate(169.197992 99.199062)scale(0.06 -0.06)">
       <use xlink:href="#DejaVuSans-57"/>
      </g>
     </g>
    </g>
    <g id="xtick_11">
     <g id="line2d_12">
      <g>
       <use style="stroke:#000000;stroke-width:0.8;" x="185.92138" xlink:href="#m22cff8d8c3" y="87.64"/>
      </g>
     </g>
     <g id="text_11">
      <!-- 10 -->
      <g transform="translate(182.10388 99.199062)scale(0.06 -0.06)">
       <use xlink:href="#DejaVuSans-49"/>
       <use x="63.623047" xlink:href="#DejaVuSans-48"/>
      </g>
     </g>
    </g>
    <g id="xtick_12">
     <g id="line2d_13">
      <g>
       <use style="stroke:#000000;stroke-width:0.8;" x="200.736018" xlink:href="#m22cff8d8c3" y="87.64"/>
      </g>
     </g>
     <g id="text_12">
      <!-- 11 -->
      <g transform="translate(196.918518 99.199062)scale(0.06 -0.06)">
       <use xlink:href="#DejaVuSans-49"/>
       <use x="63.623047" xlink:href="#DejaVuSans-49"/>
      </g>
     </g>
    </g>
    <g id="xtick_13">
     <g id="line2d_14">
      <g>
       <use style="stroke:#000000;stroke-width:0.8;" x="215.550656" xlink:href="#m22cff8d8c3" y="87.64"/>
      </g>
     </g>
     <g id="text_13">
      <!-- 12 -->
      <g transform="translate(211.733156 99.199062)scale(0.06 -0.06)">
       <use xlink:href="#DejaVuSans-49"/>
       <use x="63.623047" xlink:href="#DejaVuSans-50"/>
      </g>
     </g>
    </g>
    <g id="xtick_14">
     <g id="line2d_15">
      <g>
       <use style="stroke:#000000;stroke-width:0.8;" x="230.365294" xlink:href="#m22cff8d8c3" y="87.64"/>
      </g>
     </g>
     <g id="text_14">
      <!-- 13 -->
      <g transform="translate(226.547794 99.199062)scale(0.06 -0.06)">
       <use xlink:href="#DejaVuSans-49"/>
       <use x="63.623047" xlink:href="#DejaVuSans-51"/>
      </g>
     </g>
    </g>
    <g id="xtick_15">
     <g id="line2d_16">
      <g>
       <use style="stroke:#000000;stroke-width:0.8;" x="245.179932" xlink:href="#m22cff8d8c3" y="87.64"/>
      </g>
     </g>
     <g id="text_15">
      <!-- 14 -->
      <g transform="translate(241.362432 99.199062)scale(0.06 -0.06)">
       <use xlink:href="#DejaVuSans-49"/>
       <use x="63.623047" xlink:href="#DejaVuSans-52"/>
      </g>
     </g>
    </g>
    <g id="xtick_16">
     <g id="line2d_17">
      <g>
       <use style="stroke:#000000;stroke-width:0.8;" x="259.99457" xlink:href="#m22cff8d8c3" y="87.64"/>
      </g>
     </g>
     <g id="text_16">
      <!-- 15 -->
      <g transform="translate(256.17707 99.199062)scale(0.06 -0.06)">
       <use xlink:href="#DejaVuSans-49"/>
       <use x="63.623047" xlink:href="#DejaVuSans-53"/>
      </g>
     </g>
    </g>
    <g id="xtick_17">
     <g id="line2d_18">
      <g>
       <use style="stroke:#000000;stroke-width:0.8;" x="274.809208" xlink:href="#m22cff8d8c3" y="87.64"/>
      </g>
     </g>
     <g id="text_17">
      <!-- 16 -->
      <g transform="translate(270.991708 99.199062)scale(0.06 -0.06)">
       <use xlink:href="#DejaVuSans-49"/>
       <use x="63.623047" xlink:href="#DejaVuSans-54"/>
      </g>
     </g>
    </g>
    <g id="xtick_18">
     <g id="line2d_19">
      <g>
       <use style="stroke:#000000;stroke-width:0.8;" x="289.623846" xlink:href="#m22cff8d8c3" y="87.64"/>
      </g>
     </g>
     <g id="text_18">
      <!-- 17 -->
      <g transform="translate(285.806346 99.199062)scale(0.06 -0.06)">
       <use xlink:href="#DejaVuSans-49"/>
       <use x="63.623047" xlink:href="#DejaVuSans-55"/>
      </g>
     </g>
    </g>
    <g id="xtick_19">
     <g id="line2d_20">
      <g>
       <use style="stroke:#000000;stroke-width:0.8;" x="304.438484" xlink:href="#m22cff8d8c3" y="87.64"/>
      </g>
     </g>
     <g id="text_19">
      <!-- 18 -->
      <g transform="translate(300.620984 99.199062)scale(0.06 -0.06)">
       <use xlink:href="#DejaVuSans-49"/>
       <use x="63.623047" xlink:href="#DejaVuSans-56"/>
      </g>
     </g>
    </g>
    <g id="xtick_20">
     <g id="line2d_21">
      <g>
       <use style="stroke:#000000;stroke-width:0.8;" x="319.253123" xlink:href="#m22cff8d8c3" y="87.64"/>
      </g>
     </g>
     <g id="text_20">
      <!-- 19 -->
      <g transform="translate(315.435623 99.199062)scale(0.06 -0.06)">
       <use xlink:href="#DejaVuSans-49"/>
       <use x="63.623047" xlink:href="#DejaVuSans-57"/>
      </g>
     </g>
    </g>
    <g id="xtick_21">
     <g id="line2d_22">
      <g>
       <use style="stroke:#000000;stroke-width:0.8;" x="334.067761" xlink:href="#m22cff8d8c3" y="87.64"/>
      </g>
     </g>
     <g id="text_21">
      <!-- 20 -->
      <g transform="translate(330.250261 99.199062)scale(0.06 -0.06)">
       <use xlink:href="#DejaVuSans-50"/>
       <use x="63.623047" xlink:href="#DejaVuSans-48"/>
      </g>
     </g>
    </g>
    <g id="text_22">
     <!-- Trial Number -->
     <defs>
      <path d="M -0.296875 72.90625 
L 61.375 72.90625 
L 61.375 64.59375 
L 35.5 64.59375 
L 35.5 0 
L 25.59375 0 
L 25.59375 64.59375 
L -0.296875 64.59375 
z
" id="DejaVuSans-84"/>
      <path d="M 41.109375 46.296875 
Q 39.59375 47.171875 37.8125 47.578125 
Q 36.03125 48 33.890625 48 
Q 26.265625 48 22.1875 43.046875 
Q 18.109375 38.09375 18.109375 28.8125 
L 18.109375 0 
L 9.078125 0 
L 9.078125 54.6875 
L 18.109375 54.6875 
L 18.109375 46.1875 
Q 20.953125 51.171875 25.484375 53.578125 
Q 30.03125 56 36.53125 56 
Q 37.453125 56 38.578125 55.875 
Q 39.703125 55.765625 41.0625 55.515625 
z
" id="DejaVuSans-114"/>
      <path d="M 9.421875 54.6875 
L 18.40625 54.6875 
L 18.40625 0 
L 9.421875 0 
z
M 9.421875 75.984375 
L 18.40625 75.984375 
L 18.40625 64.59375 
L 9.421875 64.59375 
z
" id="DejaVuSans-105"/>
      <path d="M 34.28125 27.484375 
Q 23.390625 27.484375 19.1875 25 
Q 14.984375 22.515625 14.984375 16.5 
Q 14.984375 11.71875 18.140625 8.90625 
Q 21.296875 6.109375 26.703125 6.109375 
Q 34.1875 6.109375 38.703125 11.40625 
Q 43.21875 16.703125 43.21875 25.484375 
L 43.21875 27.484375 
z
M 52.203125 31.203125 
L 52.203125 0 
L 43.21875 0 
L 43.21875 8.296875 
Q 40.140625 3.328125 35.546875 0.953125 
Q 30.953125 -1.421875 24.3125 -1.421875 
Q 15.921875 -1.421875 10.953125 3.296875 
Q 6 8.015625 6 15.921875 
Q 6 25.140625 12.171875 29.828125 
Q 18.359375 34.515625 30.609375 34.515625 
L 43.21875 34.515625 
L 43.21875 35.40625 
Q 43.21875 41.609375 39.140625 45 
Q 35.0625 48.390625 27.6875 48.390625 
Q 23 48.390625 18.546875 47.265625 
Q 14.109375 46.140625 10.015625 43.890625 
L 10.015625 52.203125 
Q 14.9375 54.109375 19.578125 55.046875 
Q 24.21875 56 28.609375 56 
Q 40.484375 56 46.34375 49.84375 
Q 52.203125 43.703125 52.203125 31.203125 
z
" id="DejaVuSans-97"/>
      <path d="M 9.421875 75.984375 
L 18.40625 75.984375 
L 18.40625 0 
L 9.421875 0 
z
" id="DejaVuSans-108"/>
      <path id="DejaVuSans-32"/>
      <path d="M 9.8125 72.90625 
L 23.09375 72.90625 
L 55.421875 11.921875 
L 55.421875 72.90625 
L 64.984375 72.90625 
L 64.984375 0 
L 51.703125 0 
L 19.390625 60.984375 
L 19.390625 0 
L 9.8125 0 
z
" id="DejaVuSans-78"/>
      <path d="M 8.5 21.578125 
L 8.5 54.6875 
L 17.484375 54.6875 
L 17.484375 21.921875 
Q 17.484375 14.15625 20.5 10.265625 
Q 23.53125 6.390625 29.59375 6.390625 
Q 36.859375 6.390625 41.078125 11.03125 
Q 45.3125 15.671875 45.3125 23.6875 
L 45.3125 54.6875 
L 54.296875 54.6875 
L 54.296875 0 
L 45.3125 0 
L 45.3125 8.40625 
Q 42.046875 3.421875 37.71875 1 
Q 33.40625 -1.421875 27.6875 -1.421875 
Q 18.265625 -1.421875 13.375 4.4375 
Q 8.5 10.296875 8.5 21.578125 
z
M 31.109375 56 
z
" id="DejaVuSans-117"/>
      <path d="M 52 44.1875 
Q 55.375 50.25 60.0625 53.125 
Q 64.75 56 71.09375 56 
Q 79.640625 56 84.28125 50.015625 
Q 88.921875 44.046875 88.921875 33.015625 
L 88.921875 0 
L 79.890625 0 
L 79.890625 32.71875 
Q 79.890625 40.578125 77.09375 44.375 
Q 74.3125 48.1875 68.609375 48.1875 
Q 61.625 48.1875 57.5625 43.546875 
Q 53.515625 38.921875 53.515625 30.90625 
L 53.515625 0 
L 44.484375 0 
L 44.484375 32.71875 
Q 44.484375 40.625 41.703125 44.40625 
Q 38.921875 48.1875 33.109375 48.1875 
Q 26.21875 48.1875 22.15625 43.53125 
Q 18.109375 38.875 18.109375 30.90625 
L 18.109375 0 
L 9.078125 0 
L 9.078125 54.6875 
L 18.109375 54.6875 
L 18.109375 46.1875 
Q 21.1875 51.21875 25.484375 53.609375 
Q 29.78125 56 35.6875 56 
Q 41.65625 56 45.828125 52.96875 
Q 50 49.953125 52 44.1875 
z
" id="DejaVuSans-109"/>
      <path d="M 48.6875 27.296875 
Q 48.6875 37.203125 44.609375 42.84375 
Q 40.53125 48.484375 33.40625 48.484375 
Q 26.265625 48.484375 22.1875 42.84375 
Q 18.109375 37.203125 18.109375 27.296875 
Q 18.109375 17.390625 22.1875 11.75 
Q 26.265625 6.109375 33.40625 6.109375 
Q 40.53125 6.109375 44.609375 11.75 
Q 48.6875 17.390625 48.6875 27.296875 
z
M 18.109375 46.390625 
Q 20.953125 51.265625 25.265625 53.625 
Q 29.59375 56 35.59375 56 
Q 45.5625 56 51.78125 48.09375 
Q 58.015625 40.1875 58.015625 27.296875 
Q 58.015625 14.40625 51.78125 6.484375 
Q 45.5625 -1.421875 35.59375 -1.421875 
Q 29.59375 -1.421875 25.265625 0.953125 
Q 20.953125 3.328125 18.109375 8.203125 
L 18.109375 0 
L 9.078125 0 
L 9.078125 75.984375 
L 18.109375 75.984375 
z
" id="DejaVuSans-98"/>
      <path d="M 56.203125 29.59375 
L 56.203125 25.203125 
L 14.890625 25.203125 
Q 15.484375 15.921875 20.484375 11.0625 
Q 25.484375 6.203125 34.421875 6.203125 
Q 39.59375 6.203125 44.453125 7.46875 
Q 49.3125 8.734375 54.109375 11.28125 
L 54.109375 2.78125 
Q 49.265625 0.734375 44.1875 -0.34375 
Q 39.109375 -1.421875 33.890625 -1.421875 
Q 20.796875 -1.421875 13.15625 6.1875 
Q 5.515625 13.8125 5.515625 26.8125 
Q 5.515625 40.234375 12.765625 48.109375 
Q 20.015625 56 32.328125 56 
Q 43.359375 56 49.78125 48.890625 
Q 56.203125 41.796875 56.203125 29.59375 
z
M 47.21875 32.234375 
Q 47.125 39.59375 43.09375 43.984375 
Q 39.0625 48.390625 32.421875 48.390625 
Q 24.90625 48.390625 20.390625 44.140625 
Q 15.875 39.890625 15.1875 32.171875 
z
" id="DejaVuSans-101"/>
     </defs>
     <g transform="translate(173.824896 109.005937)scale(0.06 -0.06)">
      <use xlink:href="#DejaVuSans-84"/>
      <use x="46.333984" xlink:href="#DejaVuSans-114"/>
      <use x="87.447266" xlink:href="#DejaVuSans-105"/>
      <use x="115.230469" xlink:href="#DejaVuSans-97"/>
      <use x="176.509766" xlink:href="#DejaVuSans-108"/>
      <use x="204.292969" xlink:href="#DejaVuSans-32"/>
      <use x="236.080078" xlink:href="#DejaVuSans-78"/>
      <use x="310.884766" xlink:href="#DejaVuSans-117"/>
      <use x="374.263672" xlink:href="#DejaVuSans-109"/>
      <use x="471.675781" xlink:href="#DejaVuSans-98"/>
      <use x="535.152344" xlink:href="#DejaVuSans-101"/>
      <use x="596.675781" xlink:href="#DejaVuSans-114"/>
     </g>
    </g>
   </g>
   <g id="matplotlib.axis_2">
    <g id="ytick_1">
     <g id="line2d_23">
      <defs>
       <path d="M 0 0 
L -3.5 0 
" id="me7bc8ecdcd" style="stroke:#000000;stroke-width:0.8;"/>
      </defs>
      <g>
       <use style="stroke:#000000;stroke-width:0.8;" x="37.775" xlink:href="#me7bc8ecdcd" y="78.857143"/>
      </g>
     </g>
     <g id="text_23">
      <!-- 1.0 -->
      <defs>
       <path d="M 10.6875 12.40625 
L 21 12.40625 
L 21 0 
L 10.6875 0 
z
" id="DejaVuSans-46"/>
      </defs>
      <g transform="translate(21.233125 81.136674)scale(0.06 -0.06)">
       <use xlink:href="#DejaVuSans-49"/>
       <use x="63.623047" xlink:href="#DejaVuSans-46"/>
       <use x="95.410156" xlink:href="#DejaVuSans-48"/>
      </g>
     </g>
    </g>
    <g id="ytick_2">
     <g id="line2d_24">
      <g>
       <use style="stroke:#000000;stroke-width:0.8;" x="37.775" xlink:href="#me7bc8ecdcd" y="56.9"/>
      </g>
     </g>
     <g id="text_24">
      <!-- 1.5 -->
      <g transform="translate(21.233125 59.179531)scale(0.06 -0.06)">
       <use xlink:href="#DejaVuSans-49"/>
       <use x="63.623047" xlink:href="#DejaVuSans-46"/>
       <use x="95.410156" xlink:href="#DejaVuSans-53"/>
      </g>
     </g>
    </g>
    <g id="ytick_3">
     <g id="line2d_25">
      <g>
       <use style="stroke:#000000;stroke-width:0.8;" x="37.775" xlink:href="#me7bc8ecdcd" y="34.942857"/>
      </g>
     </g>
     <g id="text_25">
      <!-- 2.0 -->
      <g transform="translate(21.233125 37.222388)scale(0.06 -0.06)">
       <use xlink:href="#DejaVuSans-50"/>
       <use x="63.623047" xlink:href="#DejaVuSans-46"/>
       <use x="95.410156" xlink:href="#DejaVuSans-48"/>
      </g>
     </g>
    </g>
    <g id="text_26">
     <!-- Stimulus Intensity  -->
     <defs>
      <path d="M 53.515625 70.515625 
L 53.515625 60.890625 
Q 47.90625 63.578125 42.921875 64.890625 
Q 37.9375 66.21875 33.296875 66.21875 
Q 25.25 66.21875 20.875 63.09375 
Q 16.5 59.96875 16.5 54.203125 
Q 16.5 49.359375 19.40625 46.890625 
Q 22.3125 44.4375 30.421875 42.921875 
L 36.375 41.703125 
Q 47.40625 39.59375 52.65625 34.296875 
Q 57.90625 29 57.90625 20.125 
Q 57.90625 9.515625 50.796875 4.046875 
Q 43.703125 -1.421875 29.984375 -1.421875 
Q 24.8125 -1.421875 18.96875 -0.25 
Q 13.140625 0.921875 6.890625 3.21875 
L 6.890625 13.375 
Q 12.890625 10.015625 18.65625 8.296875 
Q 24.421875 6.59375 29.984375 6.59375 
Q 38.421875 6.59375 43.015625 9.90625 
Q 47.609375 13.234375 47.609375 19.390625 
Q 47.609375 24.75 44.3125 27.78125 
Q 41.015625 30.8125 33.5 32.328125 
L 27.484375 33.5 
Q 16.453125 35.6875 11.515625 40.375 
Q 6.59375 45.0625 6.59375 53.421875 
Q 6.59375 63.09375 13.40625 68.65625 
Q 20.21875 74.21875 32.171875 74.21875 
Q 37.3125 74.21875 42.625 73.28125 
Q 47.953125 72.359375 53.515625 70.515625 
z
" id="DejaVuSans-83"/>
      <path d="M 18.3125 70.21875 
L 18.3125 54.6875 
L 36.8125 54.6875 
L 36.8125 47.703125 
L 18.3125 47.703125 
L 18.3125 18.015625 
Q 18.3125 11.328125 20.140625 9.421875 
Q 21.96875 7.515625 27.59375 7.515625 
L 36.8125 7.515625 
L 36.8125 0 
L 27.59375 0 
Q 17.1875 0 13.234375 3.875 
Q 9.28125 7.765625 9.28125 18.015625 
L 9.28125 47.703125 
L 2.6875 47.703125 
L 2.6875 54.6875 
L 9.28125 54.6875 
L 9.28125 70.21875 
z
" id="DejaVuSans-116"/>
      <path d="M 44.28125 53.078125 
L 44.28125 44.578125 
Q 40.484375 46.53125 36.375 47.5 
Q 32.28125 48.484375 27.875 48.484375 
Q 21.1875 48.484375 17.84375 46.4375 
Q 14.5 44.390625 14.5 40.28125 
Q 14.5 37.15625 16.890625 35.375 
Q 19.28125 33.59375 26.515625 31.984375 
L 29.59375 31.296875 
Q 39.15625 29.25 43.1875 25.515625 
Q 47.21875 21.78125 47.21875 15.09375 
Q 47.21875 7.46875 41.1875 3.015625 
Q 35.15625 -1.421875 24.609375 -1.421875 
Q 20.21875 -1.421875 15.453125 -0.5625 
Q 10.6875 0.296875 5.421875 2 
L 5.421875 11.28125 
Q 10.40625 8.6875 15.234375 7.390625 
Q 20.0625 6.109375 24.8125 6.109375 
Q 31.15625 6.109375 34.5625 8.28125 
Q 37.984375 10.453125 37.984375 14.40625 
Q 37.984375 18.0625 35.515625 20.015625 
Q 33.0625 21.96875 24.703125 23.78125 
L 21.578125 24.515625 
Q 13.234375 26.265625 9.515625 29.90625 
Q 5.8125 33.546875 5.8125 39.890625 
Q 5.8125 47.609375 11.28125 51.796875 
Q 16.75 56 26.8125 56 
Q 31.78125 56 36.171875 55.265625 
Q 40.578125 54.546875 44.28125 53.078125 
z
" id="DejaVuSans-115"/>
      <path d="M 9.8125 72.90625 
L 19.671875 72.90625 
L 19.671875 0 
L 9.8125 0 
z
" id="DejaVuSans-73"/>
      <path d="M 54.890625 33.015625 
L 54.890625 0 
L 45.90625 0 
L 45.90625 32.71875 
Q 45.90625 40.484375 42.875 44.328125 
Q 39.84375 48.1875 33.796875 48.1875 
Q 26.515625 48.1875 22.3125 43.546875 
Q 18.109375 38.921875 18.109375 30.90625 
L 18.109375 0 
L 9.078125 0 
L 9.078125 54.6875 
L 18.109375 54.6875 
L 18.109375 46.1875 
Q 21.34375 51.125 25.703125 53.5625 
Q 30.078125 56 35.796875 56 
Q 45.21875 56 50.046875 50.171875 
Q 54.890625 44.34375 54.890625 33.015625 
z
" id="DejaVuSans-110"/>
      <path d="M 32.171875 -5.078125 
Q 28.375 -14.84375 24.75 -17.8125 
Q 21.140625 -20.796875 15.09375 -20.796875 
L 7.90625 -20.796875 
L 7.90625 -13.28125 
L 13.1875 -13.28125 
Q 16.890625 -13.28125 18.9375 -11.515625 
Q 21 -9.765625 23.484375 -3.21875 
L 25.09375 0.875 
L 2.984375 54.6875 
L 12.5 54.6875 
L 29.59375 11.921875 
L 46.6875 54.6875 
L 56.203125 54.6875 
z
" id="DejaVuSans-121"/>
     </defs>
     <g transform="translate(15.985312 84.899375)rotate(-90)scale(0.06 -0.06)">
      <use xlink:href="#DejaVuSans-83"/>
      <use x="63.476562" xlink:href="#DejaVuSans-116"/>
      <use x="102.685547" xlink:href="#DejaVuSans-105"/>
      <use x="130.46875" xlink:href="#DejaVuSans-109"/>
      <use x="227.880859" xlink:href="#DejaVuSans-117"/>
      <use x="291.259766" xlink:href="#DejaVuSans-108"/>
      <use x="319.042969" xlink:href="#DejaVuSans-117"/>
      <use x="382.421875" xlink:href="#DejaVuSans-115"/>
      <use x="434.521484" xlink:href="#DejaVuSans-32"/>
      <use x="466.308594" xlink:href="#DejaVuSans-73"/>
      <use x="495.800781" xlink:href="#DejaVuSans-110"/>
      <use x="559.179688" xlink:href="#DejaVuSans-116"/>
      <use x="598.388672" xlink:href="#DejaVuSans-101"/>
      <use x="659.912109" xlink:href="#DejaVuSans-110"/>
      <use x="723.291016" xlink:href="#DejaVuSans-115"/>
      <use x="775.390625" xlink:href="#DejaVuSans-105"/>
      <use x="803.173828" xlink:href="#DejaVuSans-116"/>
      <use x="842.382812" xlink:href="#DejaVuSans-121"/>
      <use x="901.5625" xlink:href="#DejaVuSans-32"/>
     </g>
    </g>
   </g>
   <g id="line2d_26">
    <path clip-path="url(#p8c8ffbd855)" d="M 52.589638 34.942857 
" style="fill:none;stroke:#0000ff;stroke-linecap:square;stroke-width:1.5;"/>
    <defs>
     <path d="M -4 0 
L 4 0 
M 0 4 
L 0 -4 
" id="mb81b755be4" style="stroke:#0000ff;"/>
    </defs>
    <g clip-path="url(#p8c8ffbd855)">
     <use style="fill:#0000ff;stroke:#0000ff;" x="52.589638" xlink:href="#mb81b755be4" y="34.942857"/>
    </g>
   </g>
   <g id="line2d_27">
    <path clip-path="url(#p8c8ffbd855)" d="M 67.404276 78.857143 
" style="fill:none;stroke:#ff0000;stroke-linecap:square;stroke-width:1.5;"/>
    <defs>
     <path d="M 4 0 
L -4 -0 
" id="m52caf1d0f6" style="stroke:#ff0000;"/>
    </defs>
    <g clip-path="url(#p8c8ffbd855)">
     <use style="fill:#ff0000;stroke:#ff0000;" x="67.404276" xlink:href="#m52caf1d0f6" y="78.857143"/>
    </g>
   </g>
   <g id="line2d_28">
    <path clip-path="url(#p8c8ffbd855)" d="M 82.218914 39.334286 
" style="fill:none;stroke:#0000ff;stroke-linecap:square;stroke-width:1.5;"/>
    <g clip-path="url(#p8c8ffbd855)">
     <use style="fill:#0000ff;stroke:#0000ff;" x="82.218914" xlink:href="#mb81b755be4" y="39.334286"/>
    </g>
   </g>
   <g id="line2d_29">
    <path clip-path="url(#p8c8ffbd855)" d="M 97.033552 43.725714 
" style="fill:none;stroke:#0000ff;stroke-linecap:square;stroke-width:1.5;"/>
    <g clip-path="url(#p8c8ffbd855)">
     <use style="fill:#0000ff;stroke:#0000ff;" x="97.033552" xlink:href="#mb81b755be4" y="43.725714"/>
    </g>
   </g>
   <g id="line2d_30">
    <path clip-path="url(#p8c8ffbd855)" d="M 111.84819 48.117143 
" style="fill:none;stroke:#0000ff;stroke-linecap:square;stroke-width:1.5;"/>
    <g clip-path="url(#p8c8ffbd855)">
     <use style="fill:#0000ff;stroke:#0000ff;" x="111.84819" xlink:href="#mb81b755be4" y="48.117143"/>
    </g>
   </g>
   <g id="line2d_31">
    <path clip-path="url(#p8c8ffbd855)" d="M 126.662828 52.508571 
" style="fill:none;stroke:#0000ff;stroke-linecap:square;stroke-width:1.5;"/>
    <defs>
     <path d="M -2.272918 -0.546254 
L 3.495186 -0.546254 
L 3.495186 0.56509 
L -2.272918 0.56509 
z
M 1.919213 -3.162411 
Q 1.312265 -3.417748 0.611134 -3.417748 
Q -0.087903 -3.417748 -0.696944 -3.162411 
Q -1.297614 -2.907074 -1.79573 -2.411051 
Q -2.298033 -1.906656 -2.547091 -1.303893 
Q -2.796149 -0.703223 -2.796149 0.010465 
Q -2.796149 0.703223 -2.547091 1.305986 
Q -2.298033 1.906656 -1.79573 2.411051 
Q -1.297614 2.907074 -0.696944 3.162411 
Q -0.087903 3.417748 0.611134 3.417748 
Q 1.312265 3.417748 1.919213 3.162411 
Q 2.521976 2.907074 3.017999 2.411051 
Q 3.522394 1.906656 3.76936 1.305986 
Q 4.018418 0.703223 4.018418 0.010465 
Q 4.018418 -0.703223 3.76936 -1.303893 
Q 3.522394 -1.906656 3.017999 -2.411051 
Q 2.521976 -2.907074 1.919213 -3.162411 
z
M -1.848054 -3.744244 
Q -0.290917 -4.39933 0.611134 -4.39933 
Q 1.515278 -4.39933 2.291754 -4.070741 
Q 3.070322 -3.744244 3.712851 -3.103809 
Q 4.359565 -2.455002 4.679782 -1.678527 
Q 5 -0.906237 5 0.010465 
Q 5 0.906237 4.679782 1.684805 
Q 4.359565 2.455002 3.712851 3.103809 
Q 3.070322 3.744244 2.291754 4.072834 
Q 1.515278 4.39933 0.611134 4.39933 
Q -0.290917 4.39933 -1.069485 4.072834 
Q -1.848054 3.744244 -2.488489 3.103809 
Q -3.135203 2.455002 -3.455421 1.684805 
Q -3.777731 0.906237 -3.777731 0.010465 
Q -3.777731 -0.906237 -3.455421 -1.678527 
Q -3.135203 -2.455002 -2.488489 -3.103809 
Q -1.848054 -3.744244 -0.290917 -4.39933 
z
" id="maef9c273d4" style="stroke:#0000ff;stroke-width:0.1;"/>
    </defs>
    <g clip-path="url(#p8c8ffbd855)">
     <use style="fill:#0000ff;stroke:#0000ff;stroke-width:0.1;" x="126.662828" xlink:href="#maef9c273d4" y="52.508571"/>
    </g>
   </g>
   <g id="line2d_32">
    <path clip-path="url(#p8c8ffbd855)" d="M 141.477466 48.117143 
" style="fill:none;stroke:#0000ff;stroke-linecap:square;stroke-width:1.5;"/>
    <defs>
     <path d="M 1.919213 -3.162411 
Q 1.312265 -3.417748 0.611134 -3.417748 
Q -0.087903 -3.417748 -0.696944 -3.162411 
Q -1.297614 -2.907074 -1.79573 -2.411051 
Q -2.298033 -1.906656 -2.547091 -1.303893 
Q -2.796149 -0.703223 -2.796149 0.010465 
Q -2.796149 0.703223 -2.547091 1.305986 
Q -2.298033 1.906656 -1.79573 2.411051 
Q -1.297614 2.907074 -0.696944 3.162411 
Q -0.087903 3.417748 0.611134 3.417748 
Q 1.312265 3.417748 1.919213 3.162411 
Q 2.521976 2.907074 3.017999 2.411051 
Q 3.522394 1.906656 3.76936 1.305986 
Q 4.018418 0.703223 4.018418 0.010465 
Q 4.018418 -0.703223 3.76936 -1.303893 
Q 3.522394 -1.906656 3.017999 -2.411051 
Q 2.521976 -2.907074 1.919213 -3.162411 
z
M -1.848054 -3.744244 
Q -0.290917 -4.39933 0.611134 -4.39933 
Q 1.515278 -4.39933 2.291754 -4.070741 
Q 3.070322 -3.744244 3.712851 -3.103809 
Q 4.359565 -2.455002 4.679782 -1.678527 
Q 5 -0.906237 5 0.010465 
Q 5 0.906237 4.679782 1.684805 
Q 4.359565 2.455002 3.712851 3.103809 
Q 3.070322 3.744244 2.291754 4.072834 
Q 1.515278 4.39933 0.611134 4.39933 
Q -0.290917 4.39933 -1.069485 4.072834 
Q -1.848054 3.744244 -2.488489 3.103809 
Q -3.135203 2.455002 -3.455421 1.684805 
Q -3.777731 0.906237 -3.777731 0.010465 
Q -3.777731 -0.906237 -3.455421 -1.678527 
Q -3.135203 -2.455002 -2.488489 -3.103809 
Q -1.848054 -3.744244 -0.290917 -4.39933 
z
M 1.167853 -2.881959 
L 1.167853 -0.546254 
L 3.495186 -0.546254 
L 3.495186 0.56509 
L 1.167853 0.56509 
L 1.167853 2.900795 
L 0.056509 2.900795 
L 0.056509 0.56509 
L -2.272918 0.56509 
L -2.272918 -0.546254 
L 0.056509 -0.546254 
L 0.056509 -2.881959 
z
" id="mbbd211a925" style="stroke:#0000ff;stroke-width:0.1;"/>
    </defs>
    <g clip-path="url(#p8c8ffbd855)">
     <use style="fill:#0000ff;stroke:#0000ff;stroke-width:0.1;" x="141.477466" xlink:href="#mbbd211a925" y="48.117143"/>
    </g>
   </g>
   <g id="line2d_33">
    <path clip-path="url(#p8c8ffbd855)" d="M 156.292104 74.465714 
" style="fill:none;stroke:#ff0000;stroke-linecap:square;stroke-width:1.5;"/>
    <g clip-path="url(#p8c8ffbd855)">
     <use style="fill:#ff0000;stroke:#ff0000;" x="156.292104" xlink:href="#m52caf1d0f6" y="74.465714"/>
    </g>
   </g>
   <g id="line2d_34">
    <path clip-path="url(#p8c8ffbd855)" d="M 171.106742 70.074286 
" style="fill:none;stroke:#ff0000;stroke-linecap:square;stroke-width:1.5;"/>
    <g clip-path="url(#p8c8ffbd855)">
     <use style="fill:#ff0000;stroke:#ff0000;" x="171.106742" xlink:href="#m52caf1d0f6" y="70.074286"/>
    </g>
   </g>
   <g id="line2d_35">
    <path clip-path="url(#p8c8ffbd855)" d="M 185.92138 65.682857 
" style="fill:none;stroke:#ff0000;stroke-linecap:square;stroke-width:1.5;"/>
    <g clip-path="url(#p8c8ffbd855)">
     <use style="fill:#ff0000;stroke:#ff0000;" x="185.92138" xlink:href="#m52caf1d0f6" y="65.682857"/>
    </g>
   </g>
   <g id="line2d_36">
    <path clip-path="url(#p8c8ffbd855)" d="M 200.736018 52.508571 
" style="fill:none;stroke:#0000ff;stroke-linecap:square;stroke-width:1.5;"/>
    <g clip-path="url(#p8c8ffbd855)">
     <use style="fill:#0000ff;stroke:#0000ff;" x="200.736018" xlink:href="#mb81b755be4" y="52.508571"/>
    </g>
   </g>
   <g id="line2d_37">
    <path clip-path="url(#p8c8ffbd855)" d="M 215.550656 61.291429 
" style="fill:none;stroke:#ff0000;stroke-linecap:square;stroke-width:1.5;"/>
    <g clip-path="url(#p8c8ffbd855)">
     <use style="fill:#ff0000;stroke:#ff0000;" x="215.550656" xlink:href="#m52caf1d0f6" y="61.291429"/>
    </g>
   </g>
   <g id="line2d_38">
    <path clip-path="url(#p8c8ffbd855)" d="M 230.365294 56.9 
" style="fill:none;stroke:#ff0000;stroke-linecap:square;stroke-width:1.5;"/>
    <g clip-path="url(#p8c8ffbd855)">
     <use style="fill:#ff0000;stroke:#ff0000;" x="230.365294" xlink:href="#m52caf1d0f6" y="56.9"/>
    </g>
   </g>
   <g id="line2d_39">
    <path clip-path="url(#p8c8ffbd855)" d="M 245.179932 52.508571 
" style="fill:none;stroke:#ff0000;stroke-linecap:square;stroke-width:1.5;"/>
    <g clip-path="url(#p8c8ffbd855)">
     <use style="fill:#ff0000;stroke:#ff0000;" x="245.179932" xlink:href="#m52caf1d0f6" y="52.508571"/>
    </g>
   </g>
   <g id="line2d_40">
    <path clip-path="url(#p8c8ffbd855)" d="M 259.99457 56.9 
" style="fill:none;stroke:#0000ff;stroke-linecap:square;stroke-width:1.5;"/>
    <g clip-path="url(#p8c8ffbd855)">
     <use style="fill:#0000ff;stroke:#0000ff;" x="259.99457" xlink:href="#mb81b755be4" y="56.9"/>
    </g>
   </g>
   <g id="line2d_41">
    <path clip-path="url(#p8c8ffbd855)" d="M 274.809208 48.117143 
" style="fill:none;stroke:#ff0000;stroke-linecap:square;stroke-width:1.5;"/>
    <defs>
     <path d="M 1.919213 -3.162411 
Q 1.312265 -3.417748 0.611134 -3.417748 
Q -0.087903 -3.417748 -0.696944 -3.162411 
Q -1.297614 -2.907074 -1.79573 -2.411051 
Q -2.298033 -1.906656 -2.547091 -1.303893 
Q -2.796149 -0.703223 -2.796149 0.010465 
Q -2.796149 0.703223 -2.547091 1.305986 
Q -2.298033 1.906656 -1.79573 2.411051 
Q -1.297614 2.907074 -0.696944 3.162411 
Q -0.087903 3.417748 0.611134 3.417748 
Q 1.312265 3.417748 1.919213 3.162411 
Q 2.521976 2.907074 3.017999 2.411051 
Q 3.522394 1.906656 3.76936 1.305986 
Q 4.018418 0.703223 4.018418 0.010465 
Q 4.018418 -0.703223 3.76936 -1.303893 
Q 3.522394 -1.906656 3.017999 -2.411051 
Q 2.521976 -2.907074 1.919213 -3.162411 
z
M -1.848054 -3.744244 
Q -0.290917 -4.39933 0.611134 -4.39933 
Q 1.515278 -4.39933 2.291754 -4.070741 
Q 3.070322 -3.744244 3.712851 -3.103809 
Q 4.359565 -2.455002 4.679782 -1.678527 
Q 5 -0.906237 5 0.010465 
Q 5 0.906237 4.679782 1.684805 
Q 4.359565 2.455002 3.712851 3.103809 
Q 3.070322 3.744244 2.291754 4.072834 
Q 1.515278 4.39933 0.611134 4.39933 
Q -0.290917 4.39933 -1.069485 4.072834 
Q -1.848054 3.744244 -2.488489 3.103809 
Q -3.135203 2.455002 -3.455421 1.684805 
Q -3.777731 0.906237 -3.777731 0.010465 
Q -3.777731 -0.906237 -3.455421 -1.678527 
Q -3.135203 -2.455002 -2.488489 -3.103809 
Q -1.848054 -3.744244 -0.290917 -4.39933 
z
M 1.167853 -2.881959 
L 1.167853 -0.546254 
L 3.495186 -0.546254 
L 3.495186 0.56509 
L 1.167853 0.56509 
L 1.167853 2.900795 
L 0.056509 2.900795 
L 0.056509 0.56509 
L -2.272918 0.56509 
L -2.272918 -0.546254 
L 0.056509 -0.546254 
L 0.056509 -2.881959 
z
" id="m04f3715bea" style="stroke:#ff0000;stroke-width:0.1;"/>
    </defs>
    <g clip-path="url(#p8c8ffbd855)">
     <use style="fill:#ff0000;stroke:#ff0000;stroke-width:0.1;" x="274.809208" xlink:href="#m04f3715bea" y="48.117143"/>
    </g>
   </g>
   <g id="line2d_42">
    <path clip-path="url(#p8c8ffbd855)" d="M 289.623846 52.508571 
" style="fill:none;stroke:#ff0000;stroke-linecap:square;stroke-width:1.5;"/>
    <defs>
     <path d="M -4 0 
L 4 0 
M 0 4 
L 0 -4 
" id="m4860f63906" style="stroke:#ff0000;"/>
    </defs>
    <g clip-path="url(#p8c8ffbd855)">
     <use style="fill:#ff0000;stroke:#ff0000;" x="289.623846" xlink:href="#m4860f63906" y="52.508571"/>
    </g>
   </g>
   <g id="line2d_43">
    <path clip-path="url(#p8c8ffbd855)" d="M 304.438484 61.291429 
" style="fill:none;stroke:#0000ff;stroke-linecap:square;stroke-width:1.5;"/>
    <g clip-path="url(#p8c8ffbd855)">
     <use style="fill:#0000ff;stroke:#0000ff;stroke-width:0.1;" x="304.438484" xlink:href="#maef9c273d4" y="61.291429"/>
    </g>
   </g>
   <g id="line2d_44">
    <path clip-path="url(#p8c8ffbd855)" d="M 319.253123 56.9 
" style="fill:none;stroke:#ff0000;stroke-linecap:square;stroke-width:1.5;"/>
    <defs>
     <path d="M -2.272918 -0.546254 
L 3.495186 -0.546254 
L 3.495186 0.56509 
L -2.272918 0.56509 
z
M 1.919213 -3.162411 
Q 1.312265 -3.417748 0.611134 -3.417748 
Q -0.087903 -3.417748 -0.696944 -3.162411 
Q -1.297614 -2.907074 -1.79573 -2.411051 
Q -2.298033 -1.906656 -2.547091 -1.303893 
Q -2.796149 -0.703223 -2.796149 0.010465 
Q -2.796149 0.703223 -2.547091 1.305986 
Q -2.298033 1.906656 -1.79573 2.411051 
Q -1.297614 2.907074 -0.696944 3.162411 
Q -0.087903 3.417748 0.611134 3.417748 
Q 1.312265 3.417748 1.919213 3.162411 
Q 2.521976 2.907074 3.017999 2.411051 
Q 3.522394 1.906656 3.76936 1.305986 
Q 4.018418 0.703223 4.018418 0.010465 
Q 4.018418 -0.703223 3.76936 -1.303893 
Q 3.522394 -1.906656 3.017999 -2.411051 
Q 2.521976 -2.907074 1.919213 -3.162411 
z
M -1.848054 -3.744244 
Q -0.290917 -4.39933 0.611134 -4.39933 
Q 1.515278 -4.39933 2.291754 -4.070741 
Q 3.070322 -3.744244 3.712851 -3.103809 
Q 4.359565 -2.455002 4.679782 -1.678527 
Q 5 -0.906237 5 0.010465 
Q 5 0.906237 4.679782 1.684805 
Q 4.359565 2.455002 3.712851 3.103809 
Q 3.070322 3.744244 2.291754 4.072834 
Q 1.515278 4.39933 0.611134 4.39933 
Q -0.290917 4.39933 -1.069485 4.072834 
Q -1.848054 3.744244 -2.488489 3.103809 
Q -3.135203 2.455002 -3.455421 1.684805 
Q -3.777731 0.906237 -3.777731 0.010465 
Q -3.777731 -0.906237 -3.455421 -1.678527 
Q -3.135203 -2.455002 -2.488489 -3.103809 
Q -1.848054 -3.744244 -0.290917 -4.39933 
z
" id="m64a3973e71" style="stroke:#ff0000;stroke-width:0.1;"/>
    </defs>
    <g clip-path="url(#p8c8ffbd855)">
     <use style="fill:#ff0000;stroke:#ff0000;stroke-width:0.1;" x="319.253123" xlink:href="#m64a3973e71" y="56.9"/>
    </g>
   </g>
   <g id="line2d_45">
    <path clip-path="url(#p8c8ffbd855)" d="M 334.067761 56.9 
" style="fill:none;stroke:#0000ff;stroke-linecap:square;stroke-width:1.5;"/>
    <g clip-path="url(#p8c8ffbd855)">
     <use style="fill:#0000ff;stroke:#0000ff;stroke-width:0.1;" x="334.067761" xlink:href="#mbbd211a925" y="56.9"/>
    </g>
   </g>
   <g id="patch_3">
    <path d="M 37.775 87.64 
L 37.775 26.16 
" style="fill:none;stroke:#000000;stroke-linecap:square;stroke-linejoin:miter;stroke-width:0.8;"/>
   </g>
   <g id="patch_4">
    <path d="M 348.141667 87.64 
L 348.141667 26.16 
" style="fill:none;stroke:#000000;stroke-linecap:square;stroke-linejoin:miter;stroke-width:0.8;"/>
   </g>
   <g id="patch_5">
    <path d="M 37.775 87.64 
L 348.141667 87.64 
" style="fill:none;stroke:#000000;stroke-linecap:square;stroke-linejoin:miter;stroke-width:0.8;"/>
   </g>
   <g id="patch_6">
    <path d="M 37.775 26.16 
L 348.141667 26.16 
" style="fill:none;stroke:#000000;stroke-linecap:square;stroke-linejoin:miter;stroke-width:0.8;"/>
   </g>
   <g id="text_27">
    <!-- Staircase Procedure P_1 -->
    <defs>
     <path d="M 48.78125 52.59375 
L 48.78125 44.1875 
Q 44.96875 46.296875 41.140625 47.34375 
Q 37.3125 48.390625 33.40625 48.390625 
Q 24.65625 48.390625 19.8125 42.84375 
Q 14.984375 37.3125 14.984375 27.296875 
Q 14.984375 17.28125 19.8125 11.734375 
Q 24.65625 6.203125 33.40625 6.203125 
Q 37.3125 6.203125 41.140625 7.25 
Q 44.96875 8.296875 48.78125 10.40625 
L 48.78125 2.09375 
Q 45.015625 0.34375 40.984375 -0.53125 
Q 36.96875 -1.421875 32.421875 -1.421875 
Q 20.0625 -1.421875 12.78125 6.34375 
Q 5.515625 14.109375 5.515625 27.296875 
Q 5.515625 40.671875 12.859375 48.328125 
Q 20.21875 56 33.015625 56 
Q 37.15625 56 41.109375 55.140625 
Q 45.0625 54.296875 48.78125 52.59375 
z
" id="DejaVuSans-99"/>
     <path d="M 19.671875 64.796875 
L 19.671875 37.40625 
L 32.078125 37.40625 
Q 38.96875 37.40625 42.71875 40.96875 
Q 46.484375 44.53125 46.484375 51.125 
Q 46.484375 57.671875 42.71875 61.234375 
Q 38.96875 64.796875 32.078125 64.796875 
z
M 9.8125 72.90625 
L 32.078125 72.90625 
Q 44.34375 72.90625 50.609375 67.359375 
Q 56.890625 61.8125 56.890625 51.125 
Q 56.890625 40.328125 50.609375 34.8125 
Q 44.34375 29.296875 32.078125 29.296875 
L 19.671875 29.296875 
L 19.671875 0 
L 9.8125 0 
z
" id="DejaVuSans-80"/>
     <path d="M 30.609375 48.390625 
Q 23.390625 48.390625 19.1875 42.75 
Q 14.984375 37.109375 14.984375 27.296875 
Q 14.984375 17.484375 19.15625 11.84375 
Q 23.34375 6.203125 30.609375 6.203125 
Q 37.796875 6.203125 41.984375 11.859375 
Q 46.1875 17.53125 46.1875 27.296875 
Q 46.1875 37.015625 41.984375 42.703125 
Q 37.796875 48.390625 30.609375 48.390625 
z
M 30.609375 56 
Q 42.328125 56 49.015625 48.375 
Q 55.71875 40.765625 55.71875 27.296875 
Q 55.71875 13.875 49.015625 6.21875 
Q 42.328125 -1.421875 30.609375 -1.421875 
Q 18.84375 -1.421875 12.171875 6.21875 
Q 5.515625 13.875 5.515625 27.296875 
Q 5.515625 40.765625 12.171875 48.375 
Q 18.84375 56 30.609375 56 
z
" id="DejaVuSans-111"/>
     <path d="M 45.40625 46.390625 
L 45.40625 75.984375 
L 54.390625 75.984375 
L 54.390625 0 
L 45.40625 0 
L 45.40625 8.203125 
Q 42.578125 3.328125 38.25 0.953125 
Q 33.9375 -1.421875 27.875 -1.421875 
Q 17.96875 -1.421875 11.734375 6.484375 
Q 5.515625 14.40625 5.515625 27.296875 
Q 5.515625 40.1875 11.734375 48.09375 
Q 17.96875 56 27.875 56 
Q 33.9375 56 38.25 53.625 
Q 42.578125 51.265625 45.40625 46.390625 
z
M 14.796875 27.296875 
Q 14.796875 17.390625 18.875 11.75 
Q 22.953125 6.109375 30.078125 6.109375 
Q 37.203125 6.109375 41.296875 11.75 
Q 45.40625 17.390625 45.40625 27.296875 
Q 45.40625 37.203125 41.296875 42.84375 
Q 37.203125 48.484375 30.078125 48.484375 
Q 22.953125 48.484375 18.875 42.84375 
Q 14.796875 37.203125 14.796875 27.296875 
z
" id="DejaVuSans-100"/>
     <path d="M 50.984375 -16.609375 
L 50.984375 -23.578125 
L -0.984375 -23.578125 
L -0.984375 -16.609375 
z
" id="DejaVuSans-95"/>
    </defs>
    <g transform="translate(120.937708 20.16)scale(0.12 -0.12)">
     <use xlink:href="#DejaVuSans-83"/>
     <use x="63.476562" xlink:href="#DejaVuSans-116"/>
     <use x="102.685547" xlink:href="#DejaVuSans-97"/>
     <use x="163.964844" xlink:href="#DejaVuSans-105"/>
     <use x="191.748047" xlink:href="#DejaVuSans-114"/>
     <use x="230.611328" xlink:href="#DejaVuSans-99"/>
     <use x="285.591797" xlink:href="#DejaVuSans-97"/>
     <use x="346.871094" xlink:href="#DejaVuSans-115"/>
     <use x="398.970703" xlink:href="#DejaVuSans-101"/>
     <use x="460.494141" xlink:href="#DejaVuSans-32"/>
     <use x="492.28125" xlink:href="#DejaVuSans-80"/>
     <use x="550.833984" xlink:href="#DejaVuSans-114"/>
     <use x="589.697266" xlink:href="#DejaVuSans-111"/>
     <use x="650.878906" xlink:href="#DejaVuSans-99"/>
     <use x="705.859375" xlink:href="#DejaVuSans-101"/>
     <use x="767.382812" xlink:href="#DejaVuSans-100"/>
     <use x="830.859375" xlink:href="#DejaVuSans-117"/>
     <use x="894.238281" xlink:href="#DejaVuSans-114"/>
     <use x="933.101562" xlink:href="#DejaVuSans-101"/>
     <use x="994.625" xlink:href="#DejaVuSans-32"/>
     <use x="1026.412109" xlink:href="#DejaVuSans-80"/>
     <use x="1086.714844" xlink:href="#DejaVuSans-95"/>
     <use x="1136.714844" xlink:href="#DejaVuSans-49"/>
    </g>
   </g>
   <g id="legend_1">
    <g id="patch_7">
     <path d="M 367.86 83.80125 
L 449.0625 83.80125 
Q 450.2625 83.80125 450.2625 82.60125 
L 450.2625 30.36 
Q 450.2625 29.16 449.0625 29.16 
L 367.86 29.16 
Q 366.66 29.16 366.66 30.36 
L 366.66 82.60125 
Q 366.66 83.80125 367.86 83.80125 
z
" style="fill:#ffffff;opacity:0.8;stroke:#cccccc;stroke-linejoin:miter;"/>
    </g>
    <g id="patch_8">
     <path d="M 369.06 36.119062 
L 381.06 36.119062 
L 381.06 31.919062 
L 369.06 31.919062 
z
" style="fill:#ff0000;stroke:#ff0000;stroke-linejoin:miter;"/>
    </g>
    <g id="text_28">
     <!-- Sequence1 -->
     <defs>
      <path d="M 14.796875 27.296875 
Q 14.796875 17.390625 18.875 11.75 
Q 22.953125 6.109375 30.078125 6.109375 
Q 37.203125 6.109375 41.296875 11.75 
Q 45.40625 17.390625 45.40625 27.296875 
Q 45.40625 37.203125 41.296875 42.84375 
Q 37.203125 48.484375 30.078125 48.484375 
Q 22.953125 48.484375 18.875 42.84375 
Q 14.796875 37.203125 14.796875 27.296875 
z
M 45.40625 8.203125 
Q 42.578125 3.328125 38.25 0.953125 
Q 33.9375 -1.421875 27.875 -1.421875 
Q 17.96875 -1.421875 11.734375 6.484375 
Q 5.515625 14.40625 5.515625 27.296875 
Q 5.515625 40.1875 11.734375 48.09375 
Q 17.96875 56 27.875 56 
Q 33.9375 56 38.25 53.625 
Q 42.578125 51.265625 45.40625 46.390625 
L 45.40625 54.6875 
L 54.390625 54.6875 
L 54.390625 -20.796875 
L 45.40625 -20.796875 
z
" id="DejaVuSans-113"/>
     </defs>
     <g transform="translate(385.86 36.119062)scale(0.06 -0.06)">
      <use xlink:href="#DejaVuSans-83"/>
      <use x="63.476562" xlink:href="#DejaVuSans-101"/>
      <use x="125" xlink:href="#DejaVuSans-113"/>
      <use x="188.476562" xlink:href="#DejaVuSans-117"/>
      <use x="251.855469" xlink:href="#DejaVuSans-101"/>
      <use x="313.378906" xlink:href="#DejaVuSans-110"/>
      <use x="376.757812" xlink:href="#DejaVuSans-99"/>
      <use x="431.738281" xlink:href="#DejaVuSans-101"/>
      <use x="493.261719" xlink:href="#DejaVuSans-49"/>
     </g>
    </g>
    <g id="patch_9">
     <path d="M 369.06 44.925937 
L 381.06 44.925937 
L 381.06 40.725937 
L 369.06 40.725937 
z
" style="fill:#0000ff;stroke:#0000ff;stroke-linejoin:miter;"/>
    </g>
    <g id="text_29">
     <!-- Sequence2 -->
     <g transform="translate(385.86 44.925937)scale(0.06 -0.06)">
      <use xlink:href="#DejaVuSans-83"/>
      <use x="63.476562" xlink:href="#DejaVuSans-101"/>
      <use x="125" xlink:href="#DejaVuSans-113"/>
      <use x="188.476562" xlink:href="#DejaVuSans-117"/>
      <use x="251.855469" xlink:href="#DejaVuSans-101"/>
      <use x="313.378906" xlink:href="#DejaVuSans-110"/>
      <use x="376.757812" xlink:href="#DejaVuSans-99"/>
      <use x="431.738281" xlink:href="#DejaVuSans-101"/>
      <use x="493.261719" xlink:href="#DejaVuSans-50"/>
     </g>
    </g>
    <g id="line2d_46"/>
    <g id="line2d_47">
     <defs>
      <path d="M -3 0 
L 3 0 
M 0 3 
L 0 -3 
" id="ma1830b7376" style="stroke:#000000;"/>
     </defs>
     <g>
      <use style="stroke:#000000;" x="375.06" xlink:href="#ma1830b7376" y="51.632812"/>
     </g>
    </g>
    <g id="text_30">
     <!-- Stimulus noticed -->
     <g transform="translate(385.86 53.732812)scale(0.06 -0.06)">
      <use xlink:href="#DejaVuSans-83"/>
      <use x="63.476562" xlink:href="#DejaVuSans-116"/>
      <use x="102.685547" xlink:href="#DejaVuSans-105"/>
      <use x="130.46875" xlink:href="#DejaVuSans-109"/>
      <use x="227.880859" xlink:href="#DejaVuSans-117"/>
      <use x="291.259766" xlink:href="#DejaVuSans-108"/>
      <use x="319.042969" xlink:href="#DejaVuSans-117"/>
      <use x="382.421875" xlink:href="#DejaVuSans-115"/>
      <use x="434.521484" xlink:href="#DejaVuSans-32"/>
      <use x="466.308594" xlink:href="#DejaVuSans-110"/>
      <use x="529.6875" xlink:href="#DejaVuSans-111"/>
      <use x="590.869141" xlink:href="#DejaVuSans-116"/>
      <use x="630.078125" xlink:href="#DejaVuSans-105"/>
      <use x="657.861328" xlink:href="#DejaVuSans-99"/>
      <use x="712.841797" xlink:href="#DejaVuSans-101"/>
      <use x="774.365234" xlink:href="#DejaVuSans-100"/>
     </g>
    </g>
    <g id="line2d_48"/>
    <g id="line2d_49">
     <defs>
      <path d="M 3 0 
L -3 -0 
" id="mb071fc6a43" style="stroke:#000000;"/>
     </defs>
     <g>
      <use style="stroke:#000000;" x="375.06" xlink:href="#mb071fc6a43" y="60.439687"/>
     </g>
    </g>
    <g id="text_31">
     <!-- Stimulus not noticed -->
     <g transform="translate(385.86 62.539687)scale(0.06 -0.06)">
      <use xlink:href="#DejaVuSans-83"/>
      <use x="63.476562" xlink:href="#DejaVuSans-116"/>
      <use x="102.685547" xlink:href="#DejaVuSans-105"/>
      <use x="130.46875" xlink:href="#DejaVuSans-109"/>
      <use x="227.880859" xlink:href="#DejaVuSans-117"/>
      <use x="291.259766" xlink:href="#DejaVuSans-108"/>
      <use x="319.042969" xlink:href="#DejaVuSans-117"/>
      <use x="382.421875" xlink:href="#DejaVuSans-115"/>
      <use x="434.521484" xlink:href="#DejaVuSans-32"/>
      <use x="466.308594" xlink:href="#DejaVuSans-110"/>
      <use x="529.6875" xlink:href="#DejaVuSans-111"/>
      <use x="590.869141" xlink:href="#DejaVuSans-116"/>
      <use x="630.078125" xlink:href="#DejaVuSans-32"/>
      <use x="661.865234" xlink:href="#DejaVuSans-110"/>
      <use x="725.244141" xlink:href="#DejaVuSans-111"/>
      <use x="786.425781" xlink:href="#DejaVuSans-116"/>
      <use x="825.634766" xlink:href="#DejaVuSans-105"/>
      <use x="853.417969" xlink:href="#DejaVuSans-99"/>
      <use x="908.398438" xlink:href="#DejaVuSans-101"/>
      <use x="969.921875" xlink:href="#DejaVuSans-100"/>
     </g>
    </g>
    <g id="line2d_50"/>
    <g id="line2d_51">
     <defs>
      <path d="M 0 4 
C 1.060812 4 2.078319 3.578535 2.828427 2.828427 
C 3.578535 2.078319 4 1.060812 4 0 
C 4 -1.060812 3.578535 -2.078319 2.828427 -2.828427 
C 2.078319 -3.578535 1.060812 -4 0 -4 
C -1.060812 -4 -2.078319 -3.578535 -2.828427 -2.828427 
C -3.578535 -2.078319 -4 -1.060812 -4 0 
C -4 1.060812 -3.578535 2.078319 -2.828427 2.828427 
C -2.078319 3.578535 -1.060812 4 0 4 
z
" id="mac315b50fb" style="stroke:#000000;"/>
     </defs>
     <g>
      <use style="fill:#ffffff;stroke:#000000;" x="375.06" xlink:href="#mac315b50fb" y="69.246563"/>
     </g>
    </g>
    <g id="text_32">
     <!-- Reversal -->
     <defs>
      <path d="M 44.390625 34.1875 
Q 47.5625 33.109375 50.5625 29.59375 
Q 53.5625 26.078125 56.59375 19.921875 
L 66.609375 0 
L 56 0 
L 46.6875 18.703125 
Q 43.0625 26.03125 39.671875 28.421875 
Q 36.28125 30.8125 30.421875 30.8125 
L 19.671875 30.8125 
L 19.671875 0 
L 9.8125 0 
L 9.8125 72.90625 
L 32.078125 72.90625 
Q 44.578125 72.90625 50.734375 67.671875 
Q 56.890625 62.453125 56.890625 51.90625 
Q 56.890625 45.015625 53.6875 40.46875 
Q 50.484375 35.9375 44.390625 34.1875 
z
M 19.671875 64.796875 
L 19.671875 38.921875 
L 32.078125 38.921875 
Q 39.203125 38.921875 42.84375 42.21875 
Q 46.484375 45.515625 46.484375 51.90625 
Q 46.484375 58.296875 42.84375 61.546875 
Q 39.203125 64.796875 32.078125 64.796875 
z
" id="DejaVuSans-82"/>
      <path d="M 2.984375 54.6875 
L 12.5 54.6875 
L 29.59375 8.796875 
L 46.6875 54.6875 
L 56.203125 54.6875 
L 35.6875 0 
L 23.484375 0 
z
" id="DejaVuSans-118"/>
     </defs>
     <g transform="translate(385.86 71.346563)scale(0.06 -0.06)">
      <use xlink:href="#DejaVuSans-82"/>
      <use x="64.982422" xlink:href="#DejaVuSans-101"/>
      <use x="126.505859" xlink:href="#DejaVuSans-118"/>
      <use x="185.685547" xlink:href="#DejaVuSans-101"/>
      <use x="247.208984" xlink:href="#DejaVuSans-114"/>
      <use x="288.322266" xlink:href="#DejaVuSans-115"/>
      <use x="340.421875" xlink:href="#DejaVuSans-97"/>
      <use x="401.701172" xlink:href="#DejaVuSans-108"/>
     </g>
    </g>
    <g id="line2d_52">
     <path d="M 369.06 78.053438 
L 381.06 78.053438 
" style="fill:none;stroke:#008000;stroke-dasharray:1.6,2.4;stroke-dashoffset:0;stroke-width:0.8;"/>
    </g>
    <g id="line2d_53"/>
    <g id="text_33">
     <!-- Threshold: 1.56 -->
     <defs>
      <path d="M 54.890625 33.015625 
L 54.890625 0 
L 45.90625 0 
L 45.90625 32.71875 
Q 45.90625 40.484375 42.875 44.328125 
Q 39.84375 48.1875 33.796875 48.1875 
Q 26.515625 48.1875 22.3125 43.546875 
Q 18.109375 38.921875 18.109375 30.90625 
L 18.109375 0 
L 9.078125 0 
L 9.078125 75.984375 
L 18.109375 75.984375 
L 18.109375 46.1875 
Q 21.34375 51.125 25.703125 53.5625 
Q 30.078125 56 35.796875 56 
Q 45.21875 56 50.046875 50.171875 
Q 54.890625 44.34375 54.890625 33.015625 
z
" id="DejaVuSans-104"/>
      <path d="M 11.71875 12.40625 
L 22.015625 12.40625 
L 22.015625 0 
L 11.71875 0 
z
M 11.71875 51.703125 
L 22.015625 51.703125 
L 22.015625 39.3125 
L 11.71875 39.3125 
z
" id="DejaVuSans-58"/>
     </defs>
     <g transform="translate(385.86 80.153437)scale(0.06 -0.06)">
      <use xlink:href="#DejaVuSans-84"/>
      <use x="61.083984" xlink:href="#DejaVuSans-104"/>
      <use x="124.462891" xlink:href="#DejaVuSans-114"/>
      <use x="163.326172" xlink:href="#DejaVuSans-101"/>
      <use x="224.849609" xlink:href="#DejaVuSans-115"/>
      <use x="276.949219" xlink:href="#DejaVuSans-104"/>
      <use x="340.328125" xlink:href="#DejaVuSans-111"/>
      <use x="401.509766" xlink:href="#DejaVuSans-108"/>
      <use x="429.292969" xlink:href="#DejaVuSans-100"/>
      <use x="492.769531" xlink:href="#DejaVuSans-58"/>
      <use x="526.460938" xlink:href="#DejaVuSans-32"/>
      <use x="558.248047" xlink:href="#DejaVuSans-49"/>
      <use x="621.871094" xlink:href="#DejaVuSans-46"/>
      <use x="653.658203" xlink:href="#DejaVuSans-53"/>
      <use x="717.28125" xlink:href="#DejaVuSans-54"/>
     </g>
    </g>
   </g>
  </g>
  <g id="axes_2">
   <g id="patch_10">
    <path d="M 37.775 199.24 
L 348.141667 199.24 
L 348.141667 137.76 
L 37.775 137.76 
z
" style="fill:#ffffff;"/>
   </g>
   <g id="matplotlib.axis_3">
    <g id="xtick_22">
     <g id="line2d_54">
      <g>
       <use style="stroke:#000000;stroke-width:0.8;" x="37.775" xlink:href="#m22cff8d8c3" y="199.24"/>
      </g>
     </g>
     <g id="text_34">
      <!-- 0 -->
      <g transform="translate(35.86625 210.799063)scale(0.06 -0.06)">
       <use xlink:href="#DejaVuSans-48"/>
      </g>
     </g>
    </g>
    <g id="xtick_23">
     <g id="line2d_55">
      <g>
       <use style="stroke:#000000;stroke-width:0.8;" x="67.475159" xlink:href="#m22cff8d8c3" y="199.24"/>
      </g>
     </g>
     <g id="text_35">
      <!-- 1 -->
      <g transform="translate(65.566409 210.799063)scale(0.06 -0.06)">
       <use xlink:href="#DejaVuSans-49"/>
      </g>
     </g>
    </g>
    <g id="xtick_24">
     <g id="line2d_56">
      <g>
       <use style="stroke:#000000;stroke-width:0.8;" x="97.175319" xlink:href="#m22cff8d8c3" y="199.24"/>
      </g>
     </g>
     <g id="text_36">
      <!-- 2 -->
      <g transform="translate(95.266569 210.799063)scale(0.06 -0.06)">
       <use xlink:href="#DejaVuSans-50"/>
      </g>
     </g>
    </g>
    <g id="xtick_25">
     <g id="line2d_57">
      <g>
       <use style="stroke:#000000;stroke-width:0.8;" x="126.875478" xlink:href="#m22cff8d8c3" y="199.24"/>
      </g>
     </g>
     <g id="text_37">
      <!-- 3 -->
      <g transform="translate(124.966728 210.799063)scale(0.06 -0.06)">
       <use xlink:href="#DejaVuSans-51"/>
      </g>
     </g>
    </g>
    <g id="xtick_26">
     <g id="line2d_58">
      <g>
       <use style="stroke:#000000;stroke-width:0.8;" x="156.575638" xlink:href="#m22cff8d8c3" y="199.24"/>
      </g>
     </g>
     <g id="text_38">
      <!-- 4 -->
      <g transform="translate(154.666888 210.799063)scale(0.06 -0.06)">
       <use xlink:href="#DejaVuSans-52"/>
      </g>
     </g>
    </g>
    <g id="xtick_27">
     <g id="line2d_59">
      <g>
       <use style="stroke:#000000;stroke-width:0.8;" x="186.275797" xlink:href="#m22cff8d8c3" y="199.24"/>
      </g>
     </g>
     <g id="text_39">
      <!-- 5 -->
      <g transform="translate(184.367047 210.799063)scale(0.06 -0.06)">
       <use xlink:href="#DejaVuSans-53"/>
      </g>
     </g>
    </g>
    <g id="xtick_28">
     <g id="line2d_60">
      <g>
       <use style="stroke:#000000;stroke-width:0.8;" x="215.975957" xlink:href="#m22cff8d8c3" y="199.24"/>
      </g>
     </g>
     <g id="text_40">
      <!-- 6 -->
      <g transform="translate(214.067207 210.799063)scale(0.06 -0.06)">
       <use xlink:href="#DejaVuSans-54"/>
      </g>
     </g>
    </g>
    <g id="xtick_29">
     <g id="line2d_61">
      <g>
       <use style="stroke:#000000;stroke-width:0.8;" x="245.676116" xlink:href="#m22cff8d8c3" y="199.24"/>
      </g>
     </g>
     <g id="text_41">
      <!-- 7 -->
      <g transform="translate(243.767366 210.799063)scale(0.06 -0.06)">
       <use xlink:href="#DejaVuSans-55"/>
      </g>
     </g>
    </g>
    <g id="xtick_30">
     <g id="line2d_62">
      <g>
       <use style="stroke:#000000;stroke-width:0.8;" x="275.376276" xlink:href="#m22cff8d8c3" y="199.24"/>
      </g>
     </g>
     <g id="text_42">
      <!-- 8 -->
      <g transform="translate(273.467526 210.799063)scale(0.06 -0.06)">
       <use xlink:href="#DejaVuSans-56"/>
      </g>
     </g>
    </g>
    <g id="xtick_31">
     <g id="line2d_63">
      <g>
       <use style="stroke:#000000;stroke-width:0.8;" x="305.076435" xlink:href="#m22cff8d8c3" y="199.24"/>
      </g>
     </g>
     <g id="text_43">
      <!-- 9 -->
      <g transform="translate(303.167685 210.799063)scale(0.06 -0.06)">
       <use xlink:href="#DejaVuSans-57"/>
      </g>
     </g>
    </g>
    <g id="xtick_32">
     <g id="line2d_64">
      <g>
       <use style="stroke:#000000;stroke-width:0.8;" x="334.776595" xlink:href="#m22cff8d8c3" y="199.24"/>
      </g>
     </g>
     <g id="text_44">
      <!-- 10 -->
      <g transform="translate(330.959095 210.799063)scale(0.06 -0.06)">
       <use xlink:href="#DejaVuSans-49"/>
       <use x="63.623047" xlink:href="#DejaVuSans-48"/>
      </g>
     </g>
    </g>
    <g id="text_45">
     <!-- Sequence Index -->
     <defs>
      <path d="M 54.890625 54.6875 
L 35.109375 28.078125 
L 55.90625 0 
L 45.3125 0 
L 29.390625 21.484375 
L 13.484375 0 
L 2.875 0 
L 24.125 28.609375 
L 4.6875 54.6875 
L 15.28125 54.6875 
L 29.78125 35.203125 
L 44.28125 54.6875 
z
" id="DejaVuSans-120"/>
     </defs>
     <g transform="translate(168.946146 220.605937)scale(0.06 -0.06)">
      <use xlink:href="#DejaVuSans-83"/>
      <use x="63.476562" xlink:href="#DejaVuSans-101"/>
      <use x="125" xlink:href="#DejaVuSans-113"/>
      <use x="188.476562" xlink:href="#DejaVuSans-117"/>
      <use x="251.855469" xlink:href="#DejaVuSans-101"/>
      <use x="313.378906" xlink:href="#DejaVuSans-110"/>
      <use x="376.757812" xlink:href="#DejaVuSans-99"/>
      <use x="431.738281" xlink:href="#DejaVuSans-101"/>
      <use x="493.261719" xlink:href="#DejaVuSans-32"/>
      <use x="525.048828" xlink:href="#DejaVuSans-73"/>
      <use x="554.541016" xlink:href="#DejaVuSans-110"/>
      <use x="617.919922" xlink:href="#DejaVuSans-100"/>
      <use x="681.396484" xlink:href="#DejaVuSans-101"/>
      <use x="741.169922" xlink:href="#DejaVuSans-120"/>
     </g>
    </g>
   </g>
   <g id="matplotlib.axis_4">
    <g id="ytick_4">
     <g id="line2d_65">
      <g>
       <use style="stroke:#000000;stroke-width:0.8;" x="37.775" xlink:href="#me7bc8ecdcd" y="190.457143"/>
      </g>
     </g>
     <g id="text_46">
      <!-- 1.0 -->
      <g transform="translate(21.233125 192.736674)scale(0.06 -0.06)">
       <use xlink:href="#DejaVuSans-49"/>
       <use x="63.623047" xlink:href="#DejaVuSans-46"/>
       <use x="95.410156" xlink:href="#DejaVuSans-48"/>
      </g>
     </g>
    </g>
    <g id="ytick_5">
     <g id="line2d_66">
      <g>
       <use style="stroke:#000000;stroke-width:0.8;" x="37.775" xlink:href="#me7bc8ecdcd" y="168.5"/>
      </g>
     </g>
     <g id="text_47">
      <!-- 1.5 -->
      <g transform="translate(21.233125 170.779531)scale(0.06 -0.06)">
       <use xlink:href="#DejaVuSans-49"/>
       <use x="63.623047" xlink:href="#DejaVuSans-46"/>
       <use x="95.410156" xlink:href="#DejaVuSans-53"/>
      </g>
     </g>
    </g>
    <g id="ytick_6">
     <g id="line2d_67">
      <g>
       <use style="stroke:#000000;stroke-width:0.8;" x="37.775" xlink:href="#me7bc8ecdcd" y="146.542857"/>
      </g>
     </g>
     <g id="text_48">
      <!-- 2.0 -->
      <g transform="translate(21.233125 148.822388)scale(0.06 -0.06)">
       <use xlink:href="#DejaVuSans-50"/>
       <use x="63.623047" xlink:href="#DejaVuSans-46"/>
       <use x="95.410156" xlink:href="#DejaVuSans-48"/>
      </g>
     </g>
    </g>
    <g id="text_49">
     <!-- Stimulus Intensity  -->
     <g transform="translate(15.985312 196.499375)rotate(-90)scale(0.06 -0.06)">
      <use xlink:href="#DejaVuSans-83"/>
      <use x="63.476562" xlink:href="#DejaVuSans-116"/>
      <use x="102.685547" xlink:href="#DejaVuSans-105"/>
      <use x="130.46875" xlink:href="#DejaVuSans-109"/>
      <use x="227.880859" xlink:href="#DejaVuSans-117"/>
      <use x="291.259766" xlink:href="#DejaVuSans-108"/>
      <use x="319.042969" xlink:href="#DejaVuSans-117"/>
      <use x="382.421875" xlink:href="#DejaVuSans-115"/>
      <use x="434.521484" xlink:href="#DejaVuSans-32"/>
      <use x="466.308594" xlink:href="#DejaVuSans-73"/>
      <use x="495.800781" xlink:href="#DejaVuSans-110"/>
      <use x="559.179688" xlink:href="#DejaVuSans-116"/>
      <use x="598.388672" xlink:href="#DejaVuSans-101"/>
      <use x="659.912109" xlink:href="#DejaVuSans-110"/>
      <use x="723.291016" xlink:href="#DejaVuSans-115"/>
      <use x="775.390625" xlink:href="#DejaVuSans-105"/>
      <use x="803.173828" xlink:href="#DejaVuSans-116"/>
      <use x="842.382812" xlink:href="#DejaVuSans-121"/>
      <use x="901.5625" xlink:href="#DejaVuSans-32"/>
     </g>
    </g>
   </g>
   <g id="line2d_68">
    <path clip-path="url(#p3e0d5861be)" d="M 67.475159 190.457143 
" style="fill:none;stroke:#ff0000;stroke-linecap:square;stroke-width:1.5;"/>
    <g clip-path="url(#p3e0d5861be)">
     <use style="fill:#ff0000;stroke:#ff0000;" x="67.475159" xlink:href="#m52caf1d0f6" y="190.457143"/>
    </g>
   </g>
   <g id="line2d_69">
    <path clip-path="url(#p3e0d5861be)" d="M 97.175319 186.065714 
" style="fill:none;stroke:#ff0000;stroke-linecap:square;stroke-width:1.5;"/>
    <g clip-path="url(#p3e0d5861be)">
     <use style="fill:#ff0000;stroke:#ff0000;" x="97.175319" xlink:href="#m52caf1d0f6" y="186.065714"/>
    </g>
   </g>
   <g id="line2d_70">
    <path clip-path="url(#p3e0d5861be)" d="M 126.875478 181.674286 
" style="fill:none;stroke:#ff0000;stroke-linecap:square;stroke-width:1.5;"/>
    <g clip-path="url(#p3e0d5861be)">
     <use style="fill:#ff0000;stroke:#ff0000;" x="126.875478" xlink:href="#m52caf1d0f6" y="181.674286"/>
    </g>
   </g>
   <g id="line2d_71">
    <path clip-path="url(#p3e0d5861be)" d="M 156.575638 177.282857 
" style="fill:none;stroke:#ff0000;stroke-linecap:square;stroke-width:1.5;"/>
    <g clip-path="url(#p3e0d5861be)">
     <use style="fill:#ff0000;stroke:#ff0000;" x="156.575638" xlink:href="#m52caf1d0f6" y="177.282857"/>
    </g>
   </g>
   <g id="line2d_72">
    <path clip-path="url(#p3e0d5861be)" d="M 186.275797 172.891429 
" style="fill:none;stroke:#ff0000;stroke-linecap:square;stroke-width:1.5;"/>
    <g clip-path="url(#p3e0d5861be)">
     <use style="fill:#ff0000;stroke:#ff0000;" x="186.275797" xlink:href="#m52caf1d0f6" y="172.891429"/>
    </g>
   </g>
   <g id="line2d_73">
    <path clip-path="url(#p3e0d5861be)" d="M 215.975957 168.5 
" style="fill:none;stroke:#ff0000;stroke-linecap:square;stroke-width:1.5;"/>
    <g clip-path="url(#p3e0d5861be)">
     <use style="fill:#ff0000;stroke:#ff0000;" x="215.975957" xlink:href="#m52caf1d0f6" y="168.5"/>
    </g>
   </g>
   <g id="line2d_74">
    <path clip-path="url(#p3e0d5861be)" d="M 245.676116 164.108571 
" style="fill:none;stroke:#ff0000;stroke-linecap:square;stroke-width:1.5;"/>
    <g clip-path="url(#p3e0d5861be)">
     <use style="fill:#ff0000;stroke:#ff0000;" x="245.676116" xlink:href="#m52caf1d0f6" y="164.108571"/>
    </g>
   </g>
   <g id="line2d_75">
    <path clip-path="url(#p3e0d5861be)" d="M 275.376276 159.717143 
" style="fill:none;stroke:#ff0000;stroke-linecap:square;stroke-width:1.5;"/>
    <g clip-path="url(#p3e0d5861be)">
     <use style="fill:#ff0000;stroke:#ff0000;stroke-width:0.1;" x="275.376276" xlink:href="#m04f3715bea" y="159.717143"/>
    </g>
   </g>
   <g id="line2d_76">
    <path clip-path="url(#p3e0d5861be)" d="M 305.076435 164.108571 
" style="fill:none;stroke:#ff0000;stroke-linecap:square;stroke-width:1.5;"/>
    <g clip-path="url(#p3e0d5861be)">
     <use style="fill:#ff0000;stroke:#ff0000;" x="305.076435" xlink:href="#m4860f63906" y="164.108571"/>
    </g>
   </g>
   <g id="line2d_77">
    <path clip-path="url(#p3e0d5861be)" d="M 334.776595 168.5 
" style="fill:none;stroke:#ff0000;stroke-linecap:square;stroke-width:1.5;"/>
    <g clip-path="url(#p3e0d5861be)">
     <use style="fill:#ff0000;stroke:#ff0000;stroke-width:0.1;" x="334.776595" xlink:href="#m64a3973e71" y="168.5"/>
    </g>
   </g>
   <g id="patch_11">
    <path d="M 37.775 199.24 
L 37.775 137.76 
" style="fill:none;stroke:#000000;stroke-linecap:square;stroke-linejoin:miter;stroke-width:0.8;"/>
   </g>
   <g id="patch_12">
    <path d="M 348.141667 199.24 
L 348.141667 137.76 
" style="fill:none;stroke:#000000;stroke-linecap:square;stroke-linejoin:miter;stroke-width:0.8;"/>
   </g>
   <g id="patch_13">
    <path d="M 37.775 199.24 
L 348.141667 199.24 
" style="fill:none;stroke:#000000;stroke-linecap:square;stroke-linejoin:miter;stroke-width:0.8;"/>
   </g>
   <g id="patch_14">
    <path d="M 37.775 137.76 
L 348.141667 137.76 
" style="fill:none;stroke:#000000;stroke-linecap:square;stroke-linejoin:miter;stroke-width:0.8;"/>
   </g>
   <g id="text_50">
    <!-- Sequence 1 -->
    <g transform="translate(157.636146 131.76)scale(0.12 -0.12)">
     <use xlink:href="#DejaVuSans-83"/>
     <use x="63.476562" xlink:href="#DejaVuSans-101"/>
     <use x="125" xlink:href="#DejaVuSans-113"/>
     <use x="188.476562" xlink:href="#DejaVuSans-117"/>
     <use x="251.855469" xlink:href="#DejaVuSans-101"/>
     <use x="313.378906" xlink:href="#DejaVuSans-110"/>
     <use x="376.757812" xlink:href="#DejaVuSans-99"/>
     <use x="431.738281" xlink:href="#DejaVuSans-101"/>
     <use x="493.261719" xlink:href="#DejaVuSans-32"/>
     <use x="525.048828" xlink:href="#DejaVuSans-49"/>
    </g>
   </g>
  </g>
  <g id="axes_3">
   <g id="patch_15">
    <path d="M 37.775 310.84 
L 348.141667 310.84 
L 348.141667 249.36 
L 37.775 249.36 
z
" style="fill:#ffffff;"/>
   </g>
   <g id="matplotlib.axis_5">
    <g id="xtick_33">
     <g id="line2d_78">
      <g>
       <use style="stroke:#000000;stroke-width:0.8;" x="37.775" xlink:href="#m22cff8d8c3" y="310.84"/>
      </g>
     </g>
     <g id="text_51">
      <!-- 0 -->
      <g transform="translate(35.86625 322.399063)scale(0.06 -0.06)">
       <use xlink:href="#DejaVuSans-48"/>
      </g>
     </g>
    </g>
    <g id="xtick_34">
     <g id="line2d_79">
      <g>
       <use style="stroke:#000000;stroke-width:0.8;" x="67.475159" xlink:href="#m22cff8d8c3" y="310.84"/>
      </g>
     </g>
     <g id="text_52">
      <!-- 1 -->
      <g transform="translate(65.566409 322.399063)scale(0.06 -0.06)">
       <use xlink:href="#DejaVuSans-49"/>
      </g>
     </g>
    </g>
    <g id="xtick_35">
     <g id="line2d_80">
      <g>
       <use style="stroke:#000000;stroke-width:0.8;" x="97.175319" xlink:href="#m22cff8d8c3" y="310.84"/>
      </g>
     </g>
     <g id="text_53">
      <!-- 2 -->
      <g transform="translate(95.266569 322.399063)scale(0.06 -0.06)">
       <use xlink:href="#DejaVuSans-50"/>
      </g>
     </g>
    </g>
    <g id="xtick_36">
     <g id="line2d_81">
      <g>
       <use style="stroke:#000000;stroke-width:0.8;" x="126.875478" xlink:href="#m22cff8d8c3" y="310.84"/>
      </g>
     </g>
     <g id="text_54">
      <!-- 3 -->
      <g transform="translate(124.966728 322.399063)scale(0.06 -0.06)">
       <use xlink:href="#DejaVuSans-51"/>
      </g>
     </g>
    </g>
    <g id="xtick_37">
     <g id="line2d_82">
      <g>
       <use style="stroke:#000000;stroke-width:0.8;" x="156.575638" xlink:href="#m22cff8d8c3" y="310.84"/>
      </g>
     </g>
     <g id="text_55">
      <!-- 4 -->
      <g transform="translate(154.666888 322.399063)scale(0.06 -0.06)">
       <use xlink:href="#DejaVuSans-52"/>
      </g>
     </g>
    </g>
    <g id="xtick_38">
     <g id="line2d_83">
      <g>
       <use style="stroke:#000000;stroke-width:0.8;" x="186.275797" xlink:href="#m22cff8d8c3" y="310.84"/>
      </g>
     </g>
     <g id="text_56">
      <!-- 5 -->
      <g transform="translate(184.367047 322.399063)scale(0.06 -0.06)">
       <use xlink:href="#DejaVuSans-53"/>
      </g>
     </g>
    </g>
    <g id="xtick_39">
     <g id="line2d_84">
      <g>
       <use style="stroke:#000000;stroke-width:0.8;" x="215.975957" xlink:href="#m22cff8d8c3" y="310.84"/>
      </g>
     </g>
     <g id="text_57">
      <!-- 6 -->
      <g transform="translate(214.067207 322.399063)scale(0.06 -0.06)">
       <use xlink:href="#DejaVuSans-54"/>
      </g>
     </g>
    </g>
    <g id="xtick_40">
     <g id="line2d_85">
      <g>
       <use style="stroke:#000000;stroke-width:0.8;" x="245.676116" xlink:href="#m22cff8d8c3" y="310.84"/>
      </g>
     </g>
     <g id="text_58">
      <!-- 7 -->
      <g transform="translate(243.767366 322.399063)scale(0.06 -0.06)">
       <use xlink:href="#DejaVuSans-55"/>
      </g>
     </g>
    </g>
    <g id="xtick_41">
     <g id="line2d_86">
      <g>
       <use style="stroke:#000000;stroke-width:0.8;" x="275.376276" xlink:href="#m22cff8d8c3" y="310.84"/>
      </g>
     </g>
     <g id="text_59">
      <!-- 8 -->
      <g transform="translate(273.467526 322.399063)scale(0.06 -0.06)">
       <use xlink:href="#DejaVuSans-56"/>
      </g>
     </g>
    </g>
    <g id="xtick_42">
     <g id="line2d_87">
      <g>
       <use style="stroke:#000000;stroke-width:0.8;" x="305.076435" xlink:href="#m22cff8d8c3" y="310.84"/>
      </g>
     </g>
     <g id="text_60">
      <!-- 9 -->
      <g transform="translate(303.167685 322.399063)scale(0.06 -0.06)">
       <use xlink:href="#DejaVuSans-57"/>
      </g>
     </g>
    </g>
    <g id="xtick_43">
     <g id="line2d_88">
      <g>
       <use style="stroke:#000000;stroke-width:0.8;" x="334.776595" xlink:href="#m22cff8d8c3" y="310.84"/>
      </g>
     </g>
     <g id="text_61">
      <!-- 10 -->
      <g transform="translate(330.959095 322.399063)scale(0.06 -0.06)">
       <use xlink:href="#DejaVuSans-49"/>
       <use x="63.623047" xlink:href="#DejaVuSans-48"/>
      </g>
     </g>
    </g>
    <g id="text_62">
     <!-- Sequence Index -->
     <g transform="translate(168.946146 332.205938)scale(0.06 -0.06)">
      <use xlink:href="#DejaVuSans-83"/>
      <use x="63.476562" xlink:href="#DejaVuSans-101"/>
      <use x="125" xlink:href="#DejaVuSans-113"/>
      <use x="188.476562" xlink:href="#DejaVuSans-117"/>
      <use x="251.855469" xlink:href="#DejaVuSans-101"/>
      <use x="313.378906" xlink:href="#DejaVuSans-110"/>
      <use x="376.757812" xlink:href="#DejaVuSans-99"/>
      <use x="431.738281" xlink:href="#DejaVuSans-101"/>
      <use x="493.261719" xlink:href="#DejaVuSans-32"/>
      <use x="525.048828" xlink:href="#DejaVuSans-73"/>
      <use x="554.541016" xlink:href="#DejaVuSans-110"/>
      <use x="617.919922" xlink:href="#DejaVuSans-100"/>
      <use x="681.396484" xlink:href="#DejaVuSans-101"/>
      <use x="741.169922" xlink:href="#DejaVuSans-120"/>
     </g>
    </g>
   </g>
   <g id="matplotlib.axis_6">
    <g id="ytick_7">
     <g id="line2d_89">
      <g>
       <use style="stroke:#000000;stroke-width:0.8;" x="37.775" xlink:href="#me7bc8ecdcd" y="302.057143"/>
      </g>
     </g>
     <g id="text_63">
      <!-- 1.0 -->
      <g transform="translate(21.233125 304.336674)scale(0.06 -0.06)">
       <use xlink:href="#DejaVuSans-49"/>
       <use x="63.623047" xlink:href="#DejaVuSans-46"/>
       <use x="95.410156" xlink:href="#DejaVuSans-48"/>
      </g>
     </g>
    </g>
    <g id="ytick_8">
     <g id="line2d_90">
      <g>
       <use style="stroke:#000000;stroke-width:0.8;" x="37.775" xlink:href="#me7bc8ecdcd" y="280.1"/>
      </g>
     </g>
     <g id="text_64">
      <!-- 1.5 -->
      <g transform="translate(21.233125 282.379531)scale(0.06 -0.06)">
       <use xlink:href="#DejaVuSans-49"/>
       <use x="63.623047" xlink:href="#DejaVuSans-46"/>
       <use x="95.410156" xlink:href="#DejaVuSans-53"/>
      </g>
     </g>
    </g>
    <g id="ytick_9">
     <g id="line2d_91">
      <g>
       <use style="stroke:#000000;stroke-width:0.8;" x="37.775" xlink:href="#me7bc8ecdcd" y="258.142857"/>
      </g>
     </g>
     <g id="text_65">
      <!-- 2.0 -->
      <g transform="translate(21.233125 260.422388)scale(0.06 -0.06)">
       <use xlink:href="#DejaVuSans-50"/>
       <use x="63.623047" xlink:href="#DejaVuSans-46"/>
       <use x="95.410156" xlink:href="#DejaVuSans-48"/>
      </g>
     </g>
    </g>
    <g id="text_66">
     <!-- Stimulus Intensity  -->
     <g transform="translate(15.985312 308.099375)rotate(-90)scale(0.06 -0.06)">
      <use xlink:href="#DejaVuSans-83"/>
      <use x="63.476562" xlink:href="#DejaVuSans-116"/>
      <use x="102.685547" xlink:href="#DejaVuSans-105"/>
      <use x="130.46875" xlink:href="#DejaVuSans-109"/>
      <use x="227.880859" xlink:href="#DejaVuSans-117"/>
      <use x="291.259766" xlink:href="#DejaVuSans-108"/>
      <use x="319.042969" xlink:href="#DejaVuSans-117"/>
      <use x="382.421875" xlink:href="#DejaVuSans-115"/>
      <use x="434.521484" xlink:href="#DejaVuSans-32"/>
      <use x="466.308594" xlink:href="#DejaVuSans-73"/>
      <use x="495.800781" xlink:href="#DejaVuSans-110"/>
      <use x="559.179688" xlink:href="#DejaVuSans-116"/>
      <use x="598.388672" xlink:href="#DejaVuSans-101"/>
      <use x="659.912109" xlink:href="#DejaVuSans-110"/>
      <use x="723.291016" xlink:href="#DejaVuSans-115"/>
      <use x="775.390625" xlink:href="#DejaVuSans-105"/>
      <use x="803.173828" xlink:href="#DejaVuSans-116"/>
      <use x="842.382812" xlink:href="#DejaVuSans-121"/>
      <use x="901.5625" xlink:href="#DejaVuSans-32"/>
     </g>
    </g>
   </g>
   <g id="line2d_92">
    <path clip-path="url(#p676c4cb86b)" d="M 67.475159 258.142857 
" style="fill:none;stroke:#0000ff;stroke-linecap:square;stroke-width:1.5;"/>
    <g clip-path="url(#p676c4cb86b)">
     <use style="fill:#0000ff;stroke:#0000ff;" x="67.475159" xlink:href="#mb81b755be4" y="258.142857"/>
    </g>
   </g>
   <g id="line2d_93">
    <path clip-path="url(#p676c4cb86b)" d="M 97.175319 262.534286 
" style="fill:none;stroke:#0000ff;stroke-linecap:square;stroke-width:1.5;"/>
    <g clip-path="url(#p676c4cb86b)">
     <use style="fill:#0000ff;stroke:#0000ff;" x="97.175319" xlink:href="#mb81b755be4" y="262.534286"/>
    </g>
   </g>
   <g id="line2d_94">
    <path clip-path="url(#p676c4cb86b)" d="M 126.875478 266.925714 
" style="fill:none;stroke:#0000ff;stroke-linecap:square;stroke-width:1.5;"/>
    <g clip-path="url(#p676c4cb86b)">
     <use style="fill:#0000ff;stroke:#0000ff;" x="126.875478" xlink:href="#mb81b755be4" y="266.925714"/>
    </g>
   </g>
   <g id="line2d_95">
    <path clip-path="url(#p676c4cb86b)" d="M 156.575638 271.317143 
" style="fill:none;stroke:#0000ff;stroke-linecap:square;stroke-width:1.5;"/>
    <g clip-path="url(#p676c4cb86b)">
     <use style="fill:#0000ff;stroke:#0000ff;" x="156.575638" xlink:href="#mb81b755be4" y="271.317143"/>
    </g>
   </g>
   <g id="line2d_96">
    <path clip-path="url(#p676c4cb86b)" d="M 186.275797 275.708571 
" style="fill:none;stroke:#0000ff;stroke-linecap:square;stroke-width:1.5;"/>
    <g clip-path="url(#p676c4cb86b)">
     <use style="fill:#0000ff;stroke:#0000ff;stroke-width:0.1;" x="186.275797" xlink:href="#maef9c273d4" y="275.708571"/>
    </g>
   </g>
   <g id="line2d_97">
    <path clip-path="url(#p676c4cb86b)" d="M 215.975957 271.317143 
" style="fill:none;stroke:#0000ff;stroke-linecap:square;stroke-width:1.5;"/>
    <g clip-path="url(#p676c4cb86b)">
     <use style="fill:#0000ff;stroke:#0000ff;stroke-width:0.1;" x="215.975957" xlink:href="#mbbd211a925" y="271.317143"/>
    </g>
   </g>
   <g id="line2d_98">
    <path clip-path="url(#p676c4cb86b)" d="M 245.676116 275.708571 
" style="fill:none;stroke:#0000ff;stroke-linecap:square;stroke-width:1.5;"/>
    <g clip-path="url(#p676c4cb86b)">
     <use style="fill:#0000ff;stroke:#0000ff;" x="245.676116" xlink:href="#mb81b755be4" y="275.708571"/>
    </g>
   </g>
   <g id="line2d_99">
    <path clip-path="url(#p676c4cb86b)" d="M 275.376276 280.1 
" style="fill:none;stroke:#0000ff;stroke-linecap:square;stroke-width:1.5;"/>
    <g clip-path="url(#p676c4cb86b)">
     <use style="fill:#0000ff;stroke:#0000ff;" x="275.376276" xlink:href="#mb81b755be4" y="280.1"/>
    </g>
   </g>
   <g id="line2d_100">
    <path clip-path="url(#p676c4cb86b)" d="M 305.076435 284.491429 
" style="fill:none;stroke:#0000ff;stroke-linecap:square;stroke-width:1.5;"/>
    <g clip-path="url(#p676c4cb86b)">
     <use style="fill:#0000ff;stroke:#0000ff;stroke-width:0.1;" x="305.076435" xlink:href="#maef9c273d4" y="284.491429"/>
    </g>
   </g>
   <g id="line2d_101">
    <path clip-path="url(#p676c4cb86b)" d="M 334.776595 280.1 
" style="fill:none;stroke:#0000ff;stroke-linecap:square;stroke-width:1.5;"/>
    <g clip-path="url(#p676c4cb86b)">
     <use style="fill:#0000ff;stroke:#0000ff;stroke-width:0.1;" x="334.776595" xlink:href="#mbbd211a925" y="280.1"/>
    </g>
   </g>
   <g id="patch_16">
    <path d="M 37.775 310.84 
L 37.775 249.36 
" style="fill:none;stroke:#000000;stroke-linecap:square;stroke-linejoin:miter;stroke-width:0.8;"/>
   </g>
   <g id="patch_17">
    <path d="M 348.141667 310.84 
L 348.141667 249.36 
" style="fill:none;stroke:#000000;stroke-linecap:square;stroke-linejoin:miter;stroke-width:0.8;"/>
   </g>
   <g id="patch_18">
    <path d="M 37.775 310.84 
L 348.141667 310.84 
" style="fill:none;stroke:#000000;stroke-linecap:square;stroke-linejoin:miter;stroke-width:0.8;"/>
   </g>
   <g id="patch_19">
    <path d="M 37.775 249.36 
L 348.141667 249.36 
" style="fill:none;stroke:#000000;stroke-linecap:square;stroke-linejoin:miter;stroke-width:0.8;"/>
   </g>
   <g id="text_67">
    <!-- Sequence 2 -->
    <g transform="translate(157.636146 243.36)scale(0.12 -0.12)">
     <use xlink:href="#DejaVuSans-83"/>
     <use x="63.476562" xlink:href="#DejaVuSans-101"/>
     <use x="125" xlink:href="#DejaVuSans-113"/>
     <use x="188.476562" xlink:href="#DejaVuSans-117"/>
     <use x="251.855469" xlink:href="#DejaVuSans-101"/>
     <use x="313.378906" xlink:href="#DejaVuSans-110"/>
     <use x="376.757812" xlink:href="#DejaVuSans-99"/>
     <use x="431.738281" xlink:href="#DejaVuSans-101"/>
     <use x="493.261719" xlink:href="#DejaVuSans-32"/>
     <use x="525.048828" xlink:href="#DejaVuSans-50"/>
    </g>
   </g>
  </g>
 </g>
 <defs>
  <clipPath id="p8c8ffbd855">
   <rect height="61.48" width="310.366667" x="37.775" y="26.16"/>
  </clipPath>
  <clipPath id="p3e0d5861be">
   <rect height="61.48" width="310.366667" x="37.775" y="137.76"/>
  </clipPath>
  <clipPath id="p676c4cb86b">
   <rect height="61.48" width="310.366667" x="37.775" y="249.36"/>
  </clipPath>
 </defs>
</svg>
